<svg width="18" height="30" viewBox="0 0 18 30" fill="none" xmlns="http://www.w3.org/2000/svg">
<path d="M14.302 4.9923C14.5485 5.13316 14.8302 5.20359 15.0767 5.16837C15.3936 5.16837 15.7105 5.09794 15.9571 4.88665C16.4853 4.46407 13.0342 2.56247 8.7028 2.84419C5.49825 3.05548 2.78671 3.93585 1.65984 5.02751C1.37812 5.27402 1.27248 5.62616 1.34291 5.97831C1.44855 6.54175 2.89236 5.06273 3.03322 4.9923C3.77273 4.46407 6.02648 4.07671 8.7028 4.07671C11.2383 4.11193 13.4568 4.49929 14.302 4.9923Z" fill="white"/>
<path d="M8.42063 0.203063C7.85719 0.555211 7.92762 1.18908 7.92762 1.85816C7.92762 1.99902 8.03327 2.10466 8.13891 2.17509C9.12493 1.99902 9.51229 1.25951 9.75879 0.308707C9.82922 0.0622038 9.40664 0.0622037 9.16014 0.0269889C8.87842 -0.0434408 8.5967 0.0269889 8.42063 0.203063Z" fill="white"/>
<path d="M14.6187 2.10468C14.7596 2.56248 15.1469 2.87941 15.6399 2.91462C16.0273 2.91462 16.2034 2.49205 16.2034 2.1399C16.2034 1.64689 15.5695 1.50603 15.0765 1.50603C14.9004 1.47082 14.7243 1.57646 14.6187 1.71732C14.5835 1.82297 14.5835 1.96382 14.6187 2.10468Z" fill="white"/>
<path d="M10.9916 1.68208C10.8155 1.18907 11.2733 0.80171 11.7663 0.590421C12.1889 0.414347 12.6819 0.484776 12.858 0.907354C12.9636 1.18907 12.7875 1.36515 12.6115 1.61165C12.4706 1.82294 12.2241 1.99901 11.9776 2.10466C11.555 2.24552 11.1325 2.06944 10.9916 1.68208Z" fill="white"/>
<path d="M2.78682 2.98505C2.64596 3.44285 2.25859 3.795 1.76559 3.795C1.37822 3.795 1.20215 3.37242 1.20215 3.02027C1.20215 2.52726 1.83602 2.3864 2.32902 2.3864C2.5051 2.35119 2.68117 2.45683 2.78682 2.59769C2.82203 2.73855 2.82203 2.87941 2.78682 2.98505Z" fill="white"/>
<path d="M6.20199 1.99904C6.37806 1.54125 5.92027 1.11867 5.42726 0.942594C5.00469 0.766519 4.51168 0.836949 4.3356 1.25953C4.22996 1.54125 4.40603 1.71732 4.58211 1.96382C4.72297 2.17511 4.96947 2.35119 5.21598 2.45683C5.60334 2.56248 6.06113 2.3864 6.20199 1.99904Z" fill="white"/>
<path d="M2.08225 27.8819C1.65967 28.234 1.20188 28.5158 1.06102 29.0088C0.990592 29.2553 1.27231 29.5722 1.02581 29.7835C0.849733 29.9243 0.568014 29.9596 0.356726 29.8539C-0.171497 29.7483 0.00457733 28.9735 0.145437 28.4453C0.286296 27.9523 0.603229 27.565 1.06102 27.3537C1.06102 27.3537 0.955377 26.6142 0.955377 26.4029C0.990592 25.9803 1.34274 25.6281 1.76532 25.5929C2.01182 25.5929 2.29354 25.5929 2.39918 25.8394C2.54004 26.2268 2.08225 26.1211 2.01182 26.6494C1.97661 26.8607 2.4344 27.3185 2.25833 27.6706C2.1879 27.7762 2.15268 27.8115 2.08225 27.8819Z" fill="white"/>
<path d="M15.9213 27.8819C16.3439 28.234 16.8016 28.5158 16.9073 29.0088C16.9777 29.2553 16.696 29.5722 16.9425 29.7835C17.1186 29.9243 17.4003 29.9596 17.6116 29.8539C18.175 29.6778 17.999 28.9031 17.8581 28.4101C17.7172 27.9171 17.4003 27.5297 16.9425 27.3184C16.9425 27.3184 17.0482 26.5789 17.0482 26.3676C17.0129 25.9451 16.6608 25.5929 16.2382 25.5577C15.9917 25.5577 15.71 25.5577 15.6043 25.8042C15.4635 26.1916 15.9565 26.0859 15.9917 26.6142C16.0269 26.8254 15.5691 27.2832 15.7452 27.6354C15.8156 27.7762 15.8508 27.8115 15.9213 27.8819C15.8861 27.8819 15.8861 27.8819 15.9213 27.8819Z" fill="white"/>
<path d="M9.01898 27.8467C8.5964 28.3397 8.10339 28.7623 7.53995 29.0088C7.11737 29.1496 6.65958 28.9031 6.51872 28.4805C6.51872 28.4453 6.48351 28.4101 6.48351 28.3749C6.30743 27.7762 5.77921 27.3537 5.14535 27.3889C4.54669 27.3889 4.05369 27.741 3.8424 28.3045L3.80718 28.4101V28.4453C3.70154 28.7623 3.3846 28.9383 3.06767 28.8327C2.78595 28.6918 2.64509 28.3397 2.78595 28.058C3.31418 27.0015 4.26498 26.2972 5.32142 26.2972C6.27222 26.3324 7.15259 26.8607 7.6456 27.7058C8.20903 27.1424 8.45554 26.5085 8.27946 25.9803C7.96253 25.0999 6.51872 24.9943 4.93406 25.3464C4.93406 25.3464 4.86363 24.8534 4.75798 24.5365C4.58191 23.6561 3.52546 22.5997 2.64509 22.5997C2.08166 22.5997 0.0744127 24.1491 2.4338 24.2195C2.53945 24.2195 2.64509 24.29 2.64509 24.3956C2.64509 24.4308 2.64509 24.4661 2.60988 24.5013C1.9408 25.5225 0.00398308 24.9238 0.63785 23.304C1.58865 20.7685 5.42706 21.5784 5.35663 24.4308V24.466C6.97652 24.1491 8.42032 24.3956 9.0894 25.1351C9.75849 24.4308 11.2023 24.1491 12.8222 24.466V24.4308C12.7517 21.5784 16.5902 20.7685 17.541 23.304C18.1396 24.9238 16.238 25.5577 15.5689 24.5013C15.4985 24.4308 15.5337 24.29 15.6041 24.2195C15.6394 24.1843 15.6746 24.1843 15.7098 24.1843C18.0692 24.1139 16.0619 22.5645 15.4985 22.5645C14.5829 22.5645 13.5617 23.6209 13.3856 24.5013C13.3152 24.8182 13.2095 25.3112 13.2095 25.3112C11.6249 24.9238 10.1811 25.0647 9.86413 25.9451C9.68806 26.4733 9.93456 27.1072 10.498 27.6706C10.991 26.8254 11.8714 26.2972 12.8222 26.262C13.8786 26.262 14.8294 26.9663 15.3576 28.0227C15.4985 28.3397 15.3576 28.6918 15.0759 28.8327C14.759 28.9383 14.4421 28.7623 14.3364 28.4453L14.3012 28.3397C14.0899 27.7762 13.5617 27.4241 12.9982 27.4241C12.3644 27.3889 11.8362 27.8115 11.6601 28.4101C11.6601 28.4453 11.6249 28.4805 11.6249 28.5158C11.484 28.9383 11.0262 29.1848 10.6036 29.044C10.0402 28.7623 9.5472 28.3749 9.15983 27.8467H9.01898Z" fill="white"/>
<path d="M6.90674 17.3527C6.94195 16.085 7.96318 15.0989 9.23092 15.0989C10.9564 15.0989 10.8156 17.5288 10.8156 19.2191C10.8156 20.2051 11.0973 21.4728 10.8508 22.2828C10.7804 22.4588 10.6043 22.5997 10.393 22.5997C10.1465 22.5997 9.93521 22.3884 9.93521 22.1419V16.8597C9.9 16.4019 9.54785 16.085 9.09006 16.085C7.92797 16.085 7.71668 17.564 7.71668 18.6909V21.3672C7.75189 21.7898 7.75189 22.1771 7.71668 22.5997C7.68146 22.7758 7.50539 22.8814 7.32932 22.9166C7.11803 22.9166 6.97717 22.7758 6.94195 22.5645L6.90674 17.3527Z" fill="white"/>
<path d="M15.1118 11.2253C15.3231 11.4718 15.464 11.7535 15.4992 12.0705C15.4992 12.2818 15.464 12.4578 15.4288 12.6691C15.1823 13.8312 14.1258 19.8882 14.0202 20.6277C13.9145 20.9446 13.5976 21.1207 13.2807 21.015C13.0342 20.9446 12.8581 20.7333 12.8581 20.4516C12.8581 20.3812 12.9285 20.029 12.9285 20.029C13.175 18.4796 14.161 12.3874 14.161 12.3874C14.1963 12.1409 14.0202 11.9296 13.8089 11.8944C13.8089 11.8944 11.5551 11.4718 11.2382 11.1901C11.0973 11.014 11.0269 10.8027 11.0621 10.5914L10.9213 8.68985C10.9213 8.16162 10.6396 7.59819 10.1465 7.56297C9.75918 7.52776 9.40704 7.49254 9.01967 7.49254C8.5971 7.49254 8.1393 7.52776 7.71672 7.56297C7.1885 7.56297 6.73071 7.98555 6.73071 8.54899L6.58985 10.7323C6.58985 10.9436 6.20249 10.9436 6.20249 10.9436C6.20249 10.9436 4.05438 11.1549 3.70224 11.2253C3.49095 11.2957 3.35009 11.507 3.35009 11.7183C3.35009 11.7183 4.37132 17.1766 4.58261 18.7261C4.58261 18.7261 4.65304 19.1134 4.65304 19.1839C4.65304 19.5008 4.37132 19.7825 4.05438 19.7473C3.80788 19.7473 3.56138 19.5712 3.49095 19.3247C3.3853 18.5852 2.50493 13.4791 2.25843 12.317C2.22321 12.1057 2.188 11.9296 2.188 11.7183C2.188 10.9436 2.61058 10.2393 3.31487 9.92236C3.42052 9.88715 3.49095 9.81672 3.49095 9.71107C3.49095 9.60543 3.42052 9.535 3.31487 9.49979C2.22321 8.97156 2.82187 8.47856 2.82187 8.47856C2.75144 7.59819 0.568118 8.19684 2.29364 7.31647C2.82187 7.03475 3.66702 7.95033 3.66702 7.95033C4.30089 8.19684 4.86433 8.54899 5.39255 8.93635C5.49819 9.04199 5.63905 9.00678 5.70948 8.93635C5.70948 8.93635 5.70948 8.93635 5.7447 8.90113C5.77991 8.86592 5.81513 8.79549 5.81513 8.76027V7.70383C5.81513 7.21082 6.13206 6.78825 6.58985 6.61217C7.32936 6.40088 8.06887 6.29524 8.8436 6.29524C10.0057 6.26002 11.1678 6.54174 12.189 7.10518C12.3651 7.21082 12.4355 7.3869 12.4707 7.56297V8.79549C12.4707 8.93635 12.5764 9.04199 12.7172 9.00678C12.7524 9.00678 12.8229 9.00678 12.8581 8.97156C13.2455 8.68985 13.7032 8.47856 14.161 8.30248C14.161 8.30248 14.971 7.42211 15.5344 7.66862C17.2247 8.54899 15.0766 7.98555 15.0062 8.8307C15.0062 8.8307 15.9218 9.57022 13.5624 10.1689C13.4567 10.1689 13.3863 10.2393 13.3863 10.3449C13.3863 10.4154 13.4567 10.4858 13.5272 10.521C13.8441 10.5562 14.1258 10.5914 14.4075 10.6971C14.5836 10.8027 14.8653 10.9788 15.1118 11.2253Z" fill="white"/>
</svg>
