<svg width="149" height="86" viewBox="0 0 149 86" fill="none" xmlns="http://www.w3.org/2000/svg">
<path d="M57.8634 0H54.6194V21.4258H57.8634V0Z" fill="#05775F"/>
<path d="M57.8634 64.202H54.6194V85.6278H57.8634V64.202Z" fill="#05775F"/>
<path d="M64.2754 37.797H70.1599V36.439H65.7843V32.9686H69.7827V31.6107H65.7843V28.5175H70.1599V27.1595H64.2754V37.797Z" fill="black"/>
<path d="M72.7253 37.7969H74.1588V34.2511C74.1588 33.4212 74.3096 32.6668 74.7623 31.9878C75.1395 31.3843 75.8185 31.0825 76.4975 31.0825C77.0256 31.0825 77.5537 31.3843 77.78 31.8369C78.0818 32.4405 78.1572 33.1949 78.1572 33.8739V37.8724H79.5907V33.1949C79.6661 32.2896 79.3643 31.4597 78.9117 30.7807C78.3836 30.1772 77.5537 29.8 76.7238 29.8754C76.1957 29.8754 75.6676 30.0263 75.215 30.2526C74.7623 30.479 74.4605 30.8562 74.2342 31.3088V30.1017H72.8762L72.7253 37.7969Z" fill="black"/>
<path d="M81.4771 37.5706C81.7788 37.7215 82.156 37.8724 82.5333 37.9479C82.9105 38.0233 83.2877 38.0233 83.5895 38.0233C84.0421 38.0233 84.4948 37.9479 84.872 37.797C85.2492 37.6461 85.6264 37.3443 85.8527 36.9671C86.1545 36.5899 86.23 36.0618 86.23 35.6091C86.23 35.081 86.0791 34.6284 85.7019 34.2512C85.4001 33.9494 84.9474 33.6476 84.5702 33.4967C84.193 33.3458 83.8158 33.1195 83.4386 32.8932C83.1368 32.7423 82.9105 32.3651 82.9105 31.9879C82.9105 31.6861 83.0614 31.4598 83.2877 31.3089C83.5895 31.158 83.8912 31.0825 84.2684 31.0825C84.4948 31.0825 84.7965 31.158 85.0229 31.2334C85.2492 31.3089 85.551 31.3843 85.7773 31.5352L86.0036 30.1772C85.7019 30.1018 85.4755 30.0263 85.1738 29.9509C84.872 29.8755 84.5702 29.8755 84.2684 29.8755C83.5895 29.8755 82.9105 30.0263 82.3069 30.479C81.7788 30.9317 81.477 31.6106 81.5525 32.2896C81.5525 32.7423 81.7034 33.195 82.0806 33.5722C82.3824 33.8739 82.835 34.1757 83.2122 34.3266C83.5895 34.4775 83.9667 34.7038 84.3439 34.9301C84.6457 35.081 84.872 35.3828 84.872 35.76C84.872 36.1372 84.7211 36.439 84.4193 36.6653C84.1176 36.8162 83.8158 36.8917 83.4386 36.8917C83.1368 36.8917 82.9105 36.8162 82.6087 36.7408C82.3069 36.6653 81.9297 36.5144 81.7034 36.3636L81.4771 37.5706Z" fill="black"/>
<path d="M88.7195 31.837C89.0213 31.6106 89.3985 31.3843 89.7757 31.2334C90.1529 31.0825 90.5302 31.0071 90.9828 31.0071C91.5109 30.9316 92.1145 31.158 92.4917 31.5352C92.7934 31.9878 92.9443 32.5159 92.9443 33.044H91.4355C90.9074 33.044 90.3793 33.1195 89.8512 33.2704C89.3231 33.4213 88.8704 33.6476 88.4177 34.0248C88.0405 34.402 87.8142 35.0056 87.8142 35.5337C87.7388 36.2127 88.0405 36.8916 88.5686 37.3443C89.1722 37.7215 89.8512 37.9478 90.6056 37.9478C91.1337 37.9478 91.6618 37.797 92.1899 37.5706C92.4917 37.3443 92.7934 37.118 93.0198 36.8162V37.797H94.3777V33.044C94.4532 32.2142 94.1514 31.3089 93.6233 30.6299C93.0198 30.0263 92.1145 29.7246 91.2846 29.8C90.8319 29.8 90.3038 29.8754 89.8512 30.0263C89.474 30.1772 89.0213 30.3281 88.7195 30.5544V31.837ZM92.8689 34.7792C92.8689 35.3073 92.718 35.8354 92.3408 36.2127C91.8881 36.5899 91.36 36.8162 90.7565 36.8162C90.3793 36.8162 90.0775 36.6653 89.7757 36.5144C89.2476 36.1372 89.1722 35.3828 89.5494 34.8547C89.6248 34.7792 89.7003 34.6284 89.8512 34.5529C90.1529 34.3266 90.6056 34.1757 90.9828 34.1757C91.36 34.1003 91.6618 34.1003 92.039 34.1003H92.9443L92.8689 34.7792Z" fill="black"/>
<path d="M96.9421 37.7969H98.3756V34.2511C98.3001 33.4212 98.5264 32.6668 98.9791 31.9878C99.3563 31.3843 100.035 31.0825 100.79 31.0825C101.318 31.0825 101.846 31.3843 102.072 31.8369C102.374 32.4405 102.449 33.1949 102.449 33.8739V37.8724H103.883V33.1949C103.958 32.365 103.657 31.4597 103.204 30.7807C102.676 30.1772 101.846 29.8 101.016 29.8754C100.488 29.8754 99.9599 30.0263 99.5072 30.2526C99.0545 30.479 98.6773 30.8562 98.451 31.3088V30.1017H97.093L96.9421 37.7969Z" fill="black"/>
<path d="M111.427 30.1772C111.201 30.1018 110.899 30.0263 110.598 29.9509C110.296 29.8755 109.994 29.8755 109.692 29.8755C108.636 29.8755 107.58 30.2527 106.825 31.0071C106.071 31.7615 105.694 32.8177 105.769 33.8739C105.769 34.5529 105.92 35.3074 106.297 35.9109C106.599 36.5144 107.127 37.0425 107.655 37.3443C108.259 37.7215 109.013 37.8724 109.692 37.8724C109.994 37.8724 110.296 37.8724 110.522 37.797C110.824 37.797 111.126 37.6461 111.427 37.5706L111.352 36.2881C111.126 36.439 110.899 36.5144 110.598 36.5899C110.371 36.6653 110.07 36.6653 109.843 36.6653C109.315 36.6653 108.787 36.5144 108.334 36.2127C107.957 35.9109 107.655 35.5337 107.504 35.1565C107.354 34.7038 107.203 34.2512 107.203 33.7985C107.203 33.3458 107.278 32.8177 107.504 32.4405C107.655 31.9879 107.957 31.6861 108.334 31.3843C108.712 31.0825 109.164 30.9317 109.692 30.9317C109.919 30.9317 110.22 30.9317 110.447 31.0071C110.748 31.0825 110.975 31.158 111.277 31.2334L111.427 30.1772Z" fill="black"/>
<path d="M113.313 37.797H114.747V34.2512C114.747 33.4213 114.898 32.6669 115.35 31.9879C115.728 31.3843 116.407 31.0826 117.161 31.0826C117.689 31.0826 118.217 31.3843 118.444 31.837C118.745 32.4405 118.821 33.195 118.821 33.874V37.8724H120.254V33.195C120.33 32.2896 120.028 31.4598 119.575 30.7808C119.047 30.1772 118.217 29.8755 117.387 29.8755C116.859 29.8755 116.407 29.9509 115.954 30.1772C115.501 30.4036 115.2 30.7053 114.898 31.158V26.4051H113.464V37.797H113.313Z" fill="black"/>
<path d="M128.704 36.0618C128.402 36.2881 128.101 36.439 127.723 36.5899C127.271 36.7408 126.818 36.8162 126.29 36.8917C124.932 36.8917 123.8 35.76 123.725 34.402V34.3266H129.232C129.232 33.5722 129.157 32.8177 128.93 32.0633C128.704 31.4598 128.402 30.9317 127.874 30.5544C127.271 30.1772 126.592 29.9509 125.837 29.9509C124.857 29.9509 123.876 30.3281 123.197 31.0071C122.518 31.7615 122.141 32.8177 122.216 33.7985C122.141 34.8547 122.518 35.9863 123.197 36.8162C123.951 37.6461 125.083 38.0233 126.215 37.9479C126.743 37.9479 127.195 37.8724 127.723 37.797C128.101 37.6461 128.402 37.5706 128.704 37.4952V36.0618ZM123.8 33.1949C123.8 32.8177 123.951 32.516 124.102 32.2142C124.253 31.9124 124.479 31.6106 124.781 31.3843C125.083 31.158 125.536 31.0071 125.913 31.0825C126.441 31.0825 126.969 31.3089 127.346 31.6861C127.648 32.1387 127.874 32.6668 127.874 33.1949H123.8Z" fill="black"/>
<path d="M135.419 37.797H142.133V36.5899H137.079C137.305 36.3635 137.607 36.0618 137.984 35.76C138.361 35.4582 138.663 35.1564 138.965 34.8547C139.267 34.5529 139.795 34.0248 140.247 33.4967C140.7 32.9686 141.153 32.4405 141.454 31.837C141.756 31.3089 141.982 30.7053 141.982 30.1018C142.058 29.1965 141.681 28.3666 141.002 27.8385C140.323 27.3104 139.417 27.084 138.588 27.084C138.135 27.084 137.607 27.1595 137.154 27.2349C136.701 27.3104 136.249 27.4613 135.796 27.6876L135.947 28.9701C136.324 28.8192 136.626 28.5929 137.003 28.5175C137.456 28.3666 137.909 28.2911 138.361 28.2911C138.889 28.2911 139.417 28.442 139.795 28.7438C140.172 29.0456 140.323 29.4982 140.323 29.9509C140.323 30.5544 140.096 31.158 139.795 31.6106C139.417 32.1387 139.04 32.6668 138.588 33.1195C138.135 33.5721 137.682 34.0248 137.305 34.402C136.928 34.7792 136.626 35.0056 136.324 35.3073L135.419 36.0618V37.797Z" fill="black"/>
<path d="M147.338 37.797H148.847V27.235H147.489L144.924 29.3474L145.754 30.3282L147.338 28.9702V37.797Z" fill="black"/>
<path d="M64.3511 55.9788H71.669V54.6208H66.1617L71.5936 46.7748V45.4168H64.5774V46.7748H69.8584L64.4265 54.6208V55.9788H64.3511Z" fill="black"/>
<path d="M74.3094 50.0188C74.6111 49.7925 74.9884 49.5661 75.3656 49.4152C75.7428 49.2643 76.12 49.1889 76.5727 49.1889C77.1008 49.1135 77.7043 49.3398 78.0815 49.717C78.3833 50.1697 78.5342 50.6978 78.5342 51.2259H77.0253C76.4972 51.2259 75.9691 51.3013 75.441 51.4522C74.9129 51.6031 74.4602 51.8294 74.083 52.2066C73.7058 52.5838 73.4795 53.1874 73.4795 53.7155C73.404 54.3945 73.7058 55.0735 74.2339 55.5261C74.8375 55.9033 75.5164 56.1297 76.2709 56.1297C76.799 56.1297 77.3271 55.9788 77.7797 55.677C78.0815 55.4507 78.3833 55.2244 78.6096 54.9226V55.9033H79.9676C79.9676 55.7524 79.9676 55.6016 79.8921 55.3752C79.8921 55.0735 79.8921 54.6962 79.8921 54.3945V51.3013C79.9676 50.4714 79.6658 49.5661 79.1377 48.8871C78.4587 48.2836 77.6289 47.9818 76.7235 48.0573C75.8182 48.0573 74.9129 48.359 74.1585 48.8117L74.3094 50.0188ZM78.4587 52.9611C78.4587 53.4892 78.3078 54.0173 77.9306 54.3945C77.478 54.7717 76.9499 54.998 76.3463 54.998C75.9691 54.998 75.6673 54.8471 75.3656 54.6962C74.8375 54.319 74.6866 53.5646 75.0638 53.0365C75.1392 52.9611 75.2147 52.8102 75.3656 52.7347C75.6673 52.5084 76.12 52.3575 76.4972 52.3575C76.8744 52.2821 77.1762 52.2821 77.5534 52.2821H78.4587V52.9611Z" fill="black"/>
<path d="M82.6086 55.9787H83.9666V54.9225C84.193 55.2998 84.5702 55.6015 84.9474 55.8279C85.4755 56.1296 86.079 56.2805 86.6071 56.2805C87.2861 56.2805 87.9651 56.0542 88.4932 55.677C89.0213 55.2998 89.3985 54.7717 89.5494 54.1681C89.7757 53.4891 89.9266 52.8101 89.8512 52.1311C89.8512 51.4522 89.7003 50.8486 89.474 50.1696C89.2476 49.5661 88.8704 49.1134 88.3423 48.7362C87.8142 48.359 87.1352 48.2081 86.5317 48.2081C86.0036 48.2081 85.4 48.2836 84.8719 48.5853C84.4947 48.8117 84.193 49.1134 83.9666 49.4906V44.7377H82.5332L82.6086 55.9787ZM88.4178 52.0557C88.4178 52.5084 88.3423 52.961 88.1914 53.3382C88.0405 53.7909 87.8142 54.1681 87.5124 54.4699C87.2107 54.7717 86.758 54.998 86.3054 54.998C85.8527 54.998 85.4 54.8471 85.0228 54.5453C84.6456 54.2436 84.4193 53.8663 84.2684 53.4137C83.9666 52.5084 83.9666 51.603 84.2684 50.6977C84.4193 50.2451 84.6456 49.8679 85.0228 49.6415C85.4 49.3398 85.8527 49.1889 86.3054 49.1889C86.758 49.1889 87.2107 49.3398 87.5124 49.6415C87.8142 49.9433 88.0405 50.3205 88.1914 50.6977C88.3423 51.1504 88.3423 51.603 88.4178 52.0557Z" fill="black"/>
<path d="M92.6423 50.0188C92.9441 49.7925 93.3213 49.5661 93.6985 49.4152C94.0757 49.2643 94.4529 49.1889 94.9056 49.1889C95.4337 49.1135 96.0372 49.3398 96.4145 49.717C96.7162 50.1697 96.8671 50.6978 96.8671 51.2259H95.3582C94.8301 51.2259 94.302 51.3013 93.7739 51.4522C93.2458 51.6031 92.7932 51.8294 92.3405 52.2066C91.9633 52.5838 91.737 53.1874 91.737 53.7155C91.6615 54.3945 91.9633 55.0735 92.5669 55.5261C93.1704 55.9033 93.8494 56.1297 94.6038 56.1297C95.1319 56.1297 95.66 55.9788 96.1881 55.677C96.4899 55.4507 96.7917 55.2244 97.018 54.9226V55.9033H98.376C98.376 55.7524 98.376 55.5261 98.3005 55.3752C98.3005 55.0735 98.3005 54.6962 98.3005 54.3945V51.3013C98.376 50.4714 98.0742 49.5661 97.5461 48.8871C96.9426 48.2836 96.0372 47.9818 95.2074 48.0573C94.7547 48.0573 94.302 48.1327 93.8494 48.2836C93.4722 48.4345 93.0195 48.5854 92.6423 48.8117V50.0188ZM96.7917 52.9611C96.7917 53.4892 96.6408 54.0173 96.2636 54.3945C95.8109 54.7717 95.2828 54.998 94.6793 54.998C94.302 54.998 94.0003 54.8471 93.6985 54.6962C93.1704 54.319 93.095 53.5646 93.4722 53.0365C93.5476 52.9611 93.6231 52.8102 93.7739 52.7347C94.0757 52.5084 94.5284 52.3575 94.9056 52.2821C95.2828 52.2066 95.5846 52.2066 95.9618 52.2066C96.1127 52.2066 96.2636 52.2066 96.4145 52.2066H96.8671L96.7917 52.9611Z" fill="black"/>
<path d="M102.525 44.6623H101.092V55.9787H102.525V44.6623Z" fill="black"/>
<path d="M112.332 48.2836H111.05V49.4152C110.824 49.038 110.522 48.6608 110.145 48.4345C109.616 48.2081 109.088 48.0573 108.485 48.0573C107.806 48.0573 107.127 48.2836 106.523 48.6608C105.995 49.038 105.618 49.5661 105.392 50.1697C105.165 50.7732 105.014 51.4522 105.014 52.1312C105.014 52.8102 105.165 53.4137 105.392 54.0172C105.618 54.5454 105.995 55.0735 106.448 55.4507C106.976 55.8279 107.655 55.9788 108.258 55.9788C108.787 55.9788 109.239 55.9033 109.692 55.677C110.145 55.4507 110.522 55.1489 110.824 54.7717V55.5261C110.824 56.2051 110.673 56.8841 110.22 57.4876C109.767 57.9403 109.088 58.2421 108.485 58.1666C108.032 58.1666 107.579 58.0912 107.127 58.0157C106.674 57.8648 106.146 57.714 105.693 57.4876L105.543 58.7702C106.071 58.921 106.523 59.0719 107.051 59.2228C107.429 59.2983 107.881 59.2983 108.258 59.2983C109.39 59.3737 110.446 59.0719 111.276 58.3175C111.955 57.5631 112.257 56.5823 112.181 55.6016L112.332 48.2836ZM108.636 54.8471C108.032 54.8471 107.429 54.5454 107.051 54.0172C106.674 53.4891 106.448 52.8102 106.448 52.1312C106.448 51.6785 106.523 51.2259 106.674 50.7732C106.825 50.3205 107.051 50.0188 107.429 49.717C107.73 49.4152 108.183 49.2643 108.636 49.2643C109.315 49.2643 109.994 49.5661 110.295 50.1697C110.673 50.7732 110.899 51.5276 110.824 52.2821C110.824 52.9611 110.597 53.64 110.22 54.0927C109.918 54.5453 109.315 54.7717 108.636 54.8471Z" fill="black"/>
<path d="M121.914 48.2835H120.48V51.8294C120.556 52.6592 120.329 53.4137 119.877 54.0927C119.5 54.6962 118.821 54.998 118.066 54.998C117.538 54.998 117.01 54.6962 116.784 54.2435C116.482 53.64 116.406 52.8856 116.406 52.2066V48.2835H114.973V52.8101C114.898 53.7154 115.199 54.5453 115.652 55.2243C116.18 55.8278 117.01 56.2051 117.84 56.1296C118.368 56.1296 118.896 55.9787 119.349 55.7524C119.801 55.5261 120.179 55.1489 120.405 54.6962V55.9033H121.763L121.914 48.2835Z" fill="black"/>
<path d="M124.63 55.9787H126.064V52.4329C126.064 51.603 126.214 50.8486 126.667 50.1696C127.044 49.5661 127.723 49.2643 128.478 49.2643C129.006 49.2643 129.534 49.5661 129.76 50.0187C130.062 50.6223 130.137 51.3767 130.137 52.0557V56.0542H131.571V51.4522C131.646 50.6223 131.345 49.717 130.892 49.038C130.364 48.4344 129.534 48.1327 128.704 48.1327C128.176 48.1327 127.648 48.2835 127.195 48.5099C126.743 48.7362 126.365 49.1134 126.139 49.5661V48.2835H124.781L124.63 55.9787Z" fill="black"/>
<path d="M140.171 54.2435C139.869 54.4699 139.568 54.6208 139.19 54.7716C138.738 54.9225 138.285 54.998 137.757 55.0734C137.078 55.0734 136.474 54.8471 135.946 54.3944C135.418 53.9418 135.192 53.2628 135.192 52.5084H140.699C140.699 51.7539 140.624 50.9995 140.398 50.2451C140.247 49.6415 139.869 49.1134 139.341 48.7362C138.738 48.359 138.059 48.1327 137.304 48.1327C136.324 48.1327 135.343 48.5099 134.664 49.1889C133.985 49.9433 133.608 50.9995 133.683 51.9803C133.608 53.0365 133.985 54.1681 134.664 54.998C135.418 55.8279 136.55 56.2051 137.682 56.1296C138.21 56.1296 138.662 56.0542 139.19 55.9787C139.492 55.9033 139.794 55.7524 140.096 55.677L140.171 54.2435ZM135.267 51.3767C135.267 50.9995 135.418 50.6977 135.569 50.396C135.72 50.0942 135.946 49.7924 136.248 49.5661C136.55 49.3397 137.003 49.1889 137.38 49.2643C137.908 49.2643 138.436 49.4906 138.813 49.8678C139.115 50.3205 139.341 50.8486 139.341 51.3767H135.267Z" fill="black"/>
<path d="M143.415 50.0188C143.717 49.7925 144.094 49.5661 144.472 49.4152C144.849 49.2643 145.301 49.1889 145.679 49.1889C146.207 49.1135 146.81 49.3398 147.187 49.717C147.489 50.1697 147.64 50.6978 147.64 51.2259H146.131C145.603 51.2259 145.075 51.3013 144.547 51.4522C144.019 51.6031 143.566 51.8294 143.114 52.2066C142.736 52.5838 142.51 53.1874 142.51 53.7155C142.435 54.3945 142.736 55.0735 143.264 55.5261C143.868 55.9033 144.547 56.1297 145.301 56.1297C145.83 56.1297 146.358 55.9788 146.886 55.677C147.187 55.4507 147.489 55.2244 147.716 54.9226V55.9033H149.074C149.074 55.7524 149.074 55.5261 148.998 55.3752C148.998 55.1489 148.998 54.8471 148.998 54.3945V51.3013C149.074 50.4714 148.772 49.5661 148.319 48.8871C147.64 48.2836 146.81 47.9818 145.98 48.0573C145.075 48.0573 144.17 48.359 143.415 48.8117V50.0188ZM147.565 52.9611C147.565 53.4892 147.414 54.0173 147.037 54.3945C146.584 54.7717 146.056 54.998 145.452 54.998C145.075 54.998 144.773 54.8471 144.472 54.6962C143.943 54.319 143.868 53.5646 144.245 53.0365C144.321 52.9611 144.396 52.8102 144.547 52.7347C144.924 52.5084 145.301 52.3575 145.679 52.3575C146.056 52.2821 146.358 52.2821 146.735 52.2821H147.64V52.9611H147.565Z" fill="black"/>
<path d="M30.6279 21.4259C31.156 21.7276 31.7595 21.8785 32.2876 21.8031C32.9666 21.8031 33.6456 21.6522 34.1737 21.1995C35.3054 20.2942 27.9119 16.2203 18.6324 16.8238C11.7671 17.2765 5.95801 19.1626 3.54383 21.5013C2.94029 22.0294 2.71396 22.7838 2.86485 23.5383C3.09118 24.7453 6.18434 21.5767 6.48611 21.4259C8.07042 20.2942 12.8988 19.4643 18.6324 19.4643C24.0643 19.5398 28.8172 20.3697 30.6279 21.4259Z" fill="#05775F"/>
<path d="M18.0288 11.1656C16.8217 11.92 16.9726 13.278 16.9726 14.7114C16.9726 15.0132 17.1989 15.2395 17.4252 15.3904C19.5377 15.0132 20.3675 13.4289 20.8956 11.3919C21.0465 10.8638 20.1412 10.8638 19.6131 10.7884C19.0096 10.6375 18.406 10.7884 18.0288 11.1656Z" fill="#05775F"/>
<path d="M31.3073 15.2395C31.6091 16.2203 32.439 16.8993 33.4952 16.9747C34.325 16.9747 34.7023 16.0694 34.7023 15.3149C34.7023 14.2587 33.3443 13.957 32.2881 13.957C31.9109 13.8815 31.5336 14.1079 31.3073 14.4096C31.2319 14.636 31.2319 14.9377 31.3073 15.2395Z" fill="#05775F"/>
<path d="M23.5368 14.3342C23.1595 13.278 24.1403 12.4481 25.1965 11.9954C26.1018 11.6182 27.158 11.7691 27.5352 12.6744C27.7616 13.278 27.3844 13.6552 27.0071 14.1833C26.7054 14.6359 26.1773 15.0132 25.6492 15.2395C24.7438 15.5413 23.8385 15.164 23.5368 14.3342Z" fill="#05775F"/>
<path d="M5.95866 17.1256C5.65689 18.1063 4.82701 18.8608 3.77081 18.8608C2.94094 18.8608 2.56372 17.9555 2.56372 17.201C2.56372 16.1448 3.9217 15.8431 4.9779 15.8431C5.35511 15.7676 5.73233 15.9939 5.95866 16.2957C6.0341 16.5975 6.0341 16.8993 5.95866 17.1256Z" fill="#05775F"/>
<path d="M13.276 15.0132C13.6533 14.0324 12.6725 13.1271 11.6163 12.7499C10.711 12.3727 9.65477 12.5236 9.27756 13.4289C9.05123 14.0324 9.42844 14.4096 9.80566 14.9377C10.1074 15.3904 10.6355 15.7676 11.1636 15.9939C11.9935 16.2203 12.9743 15.8431 13.276 15.0132Z" fill="#05775F"/>
<path d="M4.44947 70.4638C3.54415 71.2182 2.5634 71.8218 2.26162 72.878C2.11074 73.4061 2.71428 74.0851 2.18618 74.5377C1.80896 74.8395 1.20542 74.9149 0.752762 74.6886C-0.378883 74.4623 -0.00166829 72.8025 0.300104 71.6709C0.601876 70.6147 1.28086 69.7848 2.26162 69.3321C2.26162 69.3321 2.03529 67.7478 2.03529 67.2952C2.11074 66.3899 2.86517 65.6354 3.77048 65.56C4.29858 65.56 4.90213 65.56 5.12846 66.0881C5.43023 66.918 4.44947 66.6916 4.29858 67.8233C4.22314 68.2759 5.2039 69.2567 4.82669 70.0111C4.6758 70.2375 4.60036 70.3129 4.44947 70.4638Z" fill="#05775F"/>
<path d="M34.0985 70.4638C35.0039 71.2182 35.9846 71.8218 36.2109 72.878C36.3618 73.4061 35.7583 74.0851 36.2864 74.5377C36.6636 74.8395 37.2672 74.9149 37.7198 74.6886C38.9269 74.3114 38.5497 72.6516 38.2479 71.5954C37.9461 70.5392 37.2672 69.7094 36.2864 69.2567C36.2864 69.2567 36.5127 67.6724 36.5127 67.2197C36.4373 66.3144 35.6828 65.56 34.7775 65.4846C34.2494 65.4846 33.6459 65.4846 33.4196 66.0127C33.1178 66.8425 34.174 66.6162 34.2494 67.7478C34.3249 68.2005 33.3441 69.1813 33.7213 69.9357C33.8722 70.2375 33.9477 70.3129 34.0985 70.4638C34.0231 70.4638 34.0231 70.4638 34.0985 70.4638Z" fill="#05775F"/>
<path d="M19.3108 70.3884C18.4055 71.4446 17.3493 72.3499 16.1422 72.878C15.2369 73.1798 14.2561 72.6517 13.9543 71.7463C13.9543 71.6709 13.8789 71.5955 13.8789 71.52C13.5017 70.2375 12.37 69.3322 11.0121 69.4076C9.72953 69.4076 8.67333 70.162 8.22067 71.3691L8.14523 71.5955V71.6709C7.9189 72.3499 7.23991 72.7271 6.56092 72.5008C5.95738 72.199 5.65561 71.4446 5.95738 70.841C7.08903 68.5777 9.12599 67.0689 11.3893 67.0689C13.4262 67.1443 15.3123 68.276 16.3685 70.0866C17.5756 68.8795 18.1037 67.5215 17.7265 66.3899C17.0475 64.5038 13.9543 64.2775 10.5594 65.0319C10.5594 65.0319 10.4085 63.9757 10.1822 63.2967C9.80497 61.4106 7.54168 59.1474 5.65561 59.1474C4.44852 59.1474 0.148266 62.4668 5.20295 62.6177C5.42928 62.6177 5.65561 62.7686 5.65561 62.9949C5.65561 63.0704 5.65561 63.1458 5.58016 63.2213C4.14675 65.4091 -0.00262046 64.1266 1.35535 60.6562C3.39232 55.2243 11.6156 56.9595 11.4647 63.0704V63.1458C14.9351 62.4668 18.0283 62.9949 19.4617 64.5792C20.8951 63.0704 23.9883 62.4668 27.4586 63.1458V63.0704C27.3078 56.9595 35.531 55.2243 37.568 60.6562C38.8505 64.1266 34.7766 65.4846 33.3432 63.2213C33.1923 63.0704 33.2678 62.7686 33.4186 62.6177C33.4941 62.5423 33.5695 62.5423 33.645 62.5423C38.6997 62.3914 34.3994 59.0719 33.1923 59.0719C31.2308 59.0719 29.0429 61.3352 28.6657 63.2213C28.5148 63.9003 28.2885 64.9565 28.2885 64.9565C24.8936 64.1266 21.8004 64.4284 21.1214 66.3144C20.7442 67.4461 21.2723 68.8041 22.4794 70.0112C23.5356 68.2005 25.4217 67.0689 27.4586 66.9934C29.7219 66.9934 31.7589 68.5023 32.8905 70.7656C33.1923 71.4446 32.8905 72.199 32.287 72.5008C31.608 72.7271 30.929 72.3499 30.7027 71.6709L30.6273 71.4446C30.1746 70.2375 29.0429 69.483 27.8359 69.483C26.4779 69.4076 25.3462 70.3129 24.969 71.5955C24.969 71.6709 24.8936 71.7463 24.8936 71.8218C24.5918 72.7271 23.611 73.2552 22.7057 72.9534C21.4986 72.3499 20.4424 71.52 19.6126 70.3884H19.3108Z" fill="#05775F"/>
<path d="M14.7854 47.9064C14.8608 45.1904 17.0487 43.078 19.7646 43.078C23.4614 43.078 23.1596 48.2836 23.1596 51.9048C23.1596 54.0172 23.7631 56.7332 23.235 58.4684C23.0841 58.8456 22.7069 59.1474 22.2543 59.1474C21.7262 59.1474 21.2735 58.6947 21.2735 58.1666V46.8502C21.1981 45.8694 20.4436 45.1904 19.4629 45.1904C16.9732 45.1904 16.5206 48.359 16.5206 50.7732V56.5069C16.596 57.4122 16.596 58.2421 16.5206 59.1474C16.4451 59.5246 16.0679 59.7509 15.6907 59.8264C15.2381 59.8264 14.9363 59.5246 14.8608 59.0719L14.7854 47.9064Z" fill="#05775F"/>
<path d="M32.3633 34.7793C32.816 35.3074 33.1177 35.9109 33.1932 36.5899C33.1932 37.0426 33.1177 37.4198 33.0423 37.8724C32.5142 40.362 30.2509 53.3383 30.0246 54.9226C29.7982 55.6015 29.1192 55.9788 28.4403 55.7524C27.9122 55.6015 27.5349 55.1489 27.5349 54.5453C27.5349 54.3945 27.6858 53.64 27.6858 53.64C28.2139 50.3205 30.3263 37.2689 30.3263 37.2689C30.4018 36.7408 30.0246 36.2881 29.5719 36.2127C29.5719 36.2127 24.7436 35.3074 24.0646 34.7038C23.7628 34.3266 23.6119 33.8739 23.6874 33.4213L23.3856 29.3474C23.3856 28.2157 22.782 27.0086 21.7258 26.9332C20.896 26.8577 20.1415 26.7823 19.3117 26.7823C18.4063 26.7823 17.4256 26.8577 16.5203 26.9332C15.3886 26.9332 14.4079 27.8385 14.4079 29.0456L14.1061 33.7231C14.1061 34.1757 13.2762 34.1757 13.2762 34.1757C13.2762 34.1757 8.67419 34.6284 7.91976 34.7793C7.4671 34.9301 7.16533 35.3828 7.16533 35.8355C7.16533 35.8355 9.35317 47.5291 9.80583 50.8486C9.80583 50.8486 9.95672 51.6785 9.95672 51.8294C9.95672 52.5084 9.35317 53.1119 8.67419 53.0365C8.14609 53.0365 7.61798 52.6593 7.4671 52.1312C7.24077 50.5469 5.35469 39.6076 4.82659 37.118C4.75115 36.6653 4.67571 36.2881 4.67571 35.8355C4.67571 34.1757 5.58102 32.6669 7.08988 31.9879C7.31621 31.9124 7.4671 31.7615 7.4671 31.5352C7.4671 31.3089 7.31621 31.158 7.08988 31.0826C4.75115 29.9509 6.03368 28.8947 6.03368 28.8947C5.88279 27.0086 1.20533 28.2912 4.90204 26.4051C6.03368 25.8015 7.84431 27.7631 7.84431 27.7631C9.20229 28.2912 10.4094 29.0456 11.541 29.8755C11.7674 30.1018 12.0691 30.0264 12.22 29.8755C12.22 29.8755 12.22 29.8755 12.2955 29.8C12.3709 29.7246 12.4463 29.5737 12.4463 29.4983V27.235C12.4463 26.1788 13.1253 25.2734 14.1061 24.8962C15.6904 24.4436 17.2747 24.2172 18.9344 24.2172C21.4241 24.1418 23.9137 24.7453 26.1015 25.9524C26.4787 26.1788 26.6296 26.556 26.7051 26.9332V29.5737C26.7051 29.8755 26.9314 30.1018 27.2332 30.0264C27.3086 30.0264 27.4595 30.0264 27.5349 29.9509C28.3648 29.3474 29.3456 28.8947 30.3263 28.5175C30.3263 28.5175 32.0615 26.6314 33.2686 27.1595C36.8899 29.0456 32.2879 27.8385 32.137 29.6491C32.137 29.6491 34.0985 31.2334 29.0438 32.516C28.8175 32.516 28.6666 32.6669 28.6666 32.8932C28.6666 33.0441 28.8175 33.195 28.9684 33.2704C29.6474 33.3458 30.2509 33.4213 30.8544 33.6476C31.2317 33.8739 31.8352 34.2512 32.3633 34.7793Z" fill="#05775F"/>
</svg>
