<?xml version="1.0" encoding="UTF-8" standalone="no"?>
<!DOCTYPE svg PUBLIC "-//W3C//DTD SVG 1.1//EN" "http://www.w3.org/Graphics/SVG/1.1/DTD/svg11.dtd">
<svg width="100%" height="100%" viewBox="0 0 99 45" version="1.1" xmlns="http://www.w3.org/2000/svg" xmlns:xlink="http://www.w3.org/1999/xlink" xml:space="preserve" xmlns:serif="http://www.serif.com/" style="fill-rule:evenodd;clip-rule:evenodd;stroke-linejoin:round;stroke-miterlimit:2;">
    <g transform="matrix(1,0,0,1,0.0788854,0)">
        <path d="M37.4,7.2L38.2,7.2L40.5,12.7L39.7,12.7L39,11.3L36.4,11.3L35.9,12.7L35.1,12.7L37.4,7.2ZM37.7,7.9L36.6,10.6L38.7,10.6L37.7,7.9Z" style="fill:white;fill-rule:nonzero;"/>
    </g>
    <g transform="matrix(1,0,0,1,0.0788854,0)">
        <path d="M40.7,13.7C40.8,13.7 40.9,13.8 41,13.8C41.6,13.8 41.9,12.9 41.9,12.8C41.9,12.7 41.8,12.5 41.8,12.4L40.5,8.6L41.3,8.6L42.4,11.9L43.5,8.6L44.2,8.6L42.8,12.7C42.5,13.5 42.2,14.4 41.3,14.4C41.1,14.4 40.9,14.4 40.8,14.3L40.7,13.7Z" style="fill:white;fill-rule:nonzero;"/>
    </g>
    <g transform="matrix(1,0,0,1,0.0788854,0)">
        <path d="M48.3,12.7L47.6,12.7L47.6,12C47.4,12.5 46.9,12.7 46.3,12.7C45.3,12.7 44.8,12.1 44.8,11L44.8,8.6L45.5,8.6L45.5,10.7C45.5,11.6 45.7,12.1 46.3,12.1C47.1,12.1 47.5,11.4 47.5,10.4L47.5,8.6L48.2,8.6L48.2,12.7L48.3,12.7Z" style="fill:white;fill-rule:nonzero;"/>
    </g>
    <g transform="matrix(1,0,0,1,0.0788854,0)">
        <path d="M49.5,8.6L50.2,8.6L50.2,9.2C50.4,8.7 50.9,8.5 51.5,8.5C52.5,8.5 53,9.1 53,10.2L53,12.6L52.3,12.6L52.3,10.5C52.3,9.6 52.1,9.1 51.5,9.1C50.7,9.1 50.3,9.8 50.3,10.8L50.3,12.7L49.6,12.7L49.6,8.6L49.5,8.6Z" style="fill:white;fill-rule:nonzero;"/>
    </g>
    <g transform="matrix(1,0,0,1,0.0788854,0)">
        <path d="M56.3,9.2L55.3,9.2L55.3,11.4C55.3,11.9 55.6,12.1 55.9,12.1C56.1,12.1 56.3,12 56.4,12L56.4,12.6C56.2,12.6 56,12.7 55.8,12.7C55.1,12.7 54.6,12.3 54.6,11.5L54.6,9.2L53.7,9.2L53.7,8.6L54.6,8.6L54.6,7.7L55.3,7.5L55.3,8.7L56.3,8.7L56.3,9.2Z" style="fill:white;fill-rule:nonzero;"/>
    </g>
    <g transform="matrix(1,0,0,1,0.0788854,0)">
        <path d="M57.4,8.9C57.8,8.7 58.2,8.5 58.7,8.5C59.8,8.5 60.3,9.1 60.3,10.2L60.3,12.7L59.6,12.7L59.6,12.2C59.4,12.4 59,12.8 58.4,12.8C57.6,12.8 57,12.4 57,11.5C57,10.5 58.1,10.2 58.8,10.2L59.6,10.2C59.6,9.5 59.4,9.2 58.6,9.2C58.2,9.2 57.8,9.4 57.5,9.6L57.4,8.9ZM59.5,10.7L59,10.7C58.6,10.7 57.6,10.8 57.6,11.5C57.6,11.9 58,12.2 58.3,12.2C59,12.2 59.4,11.7 59.4,11.1L59.4,10.7L59.5,10.7Z" style="fill:white;fill-rule:nonzero;"/>
    </g>
    <g transform="matrix(1,0,0,1,0.0788854,0)">
        <path d="M61.5,8.6L62.2,8.6L62.2,9.2C62.5,8.7 62.9,8.5 63.4,8.5C63.9,8.5 64.3,8.7 64.5,9.3C64.8,8.7 65.4,8.5 65.7,8.5C66.7,8.5 67.1,9.2 67.1,10L67.1,12.6L66.4,12.6L66.4,10.2C66.4,9.7 66.3,9.1 65.7,9.1C65,9.1 64.7,9.8 64.7,10.6L64.7,12.6L64,12.6L64,10.2C64,9.7 63.9,9.1 63.3,9.1C62.6,9.1 62.3,9.8 62.3,10.6L62.3,12.6L61.6,12.6L61.6,8.6L61.5,8.6Z" style="fill:white;fill-rule:nonzero;"/>
    </g>
    <g transform="matrix(1,0,0,1,0.0788854,0)">
        <path d="M69.2,7.7L68.4,7.7L68.4,6.9L69.2,6.9L69.2,7.7ZM68.4,8.6L69.1,8.6L69.1,12.6L68.4,12.6L68.4,8.6Z" style="fill:white;fill-rule:nonzero;"/>
    </g>
    <g transform="matrix(1,0,0,1,0.0788854,0)">
        <path d="M73.5,12.5C73.2,12.6 72.9,12.8 72.3,12.8C70.9,12.8 70.3,11.9 70.3,10.6C70.3,9.4 71,8.6 72.1,8.6C73.4,8.6 73.8,9.6 73.8,10.9L71,10.9C71,11.7 71.6,12.2 72.3,12.2C72.8,12.2 73.3,11.9 73.5,11.8L73.5,12.5ZM73,10.3C73,9.7 72.6,9.2 72,9.2C71.3,9.2 71,9.8 70.9,10.3L73,10.3Z" style="fill:white;fill-rule:nonzero;"/>
    </g>
    <g transform="matrix(1,0,0,1,0.0788854,0)">
        <path d="M74.7,8.6L75.4,8.6L75.4,9.2C75.6,8.7 76.1,8.5 76.7,8.5C77.7,8.5 78.2,9.1 78.2,10.2L78.2,12.6L77.5,12.6L77.5,10.5C77.5,9.6 77.3,9.1 76.7,9.1C75.9,9.1 75.5,9.8 75.5,10.8L75.5,12.7L74.8,12.7L74.8,8.6L74.7,8.6Z" style="fill:white;fill-rule:nonzero;"/>
    </g>
    <g transform="matrix(1,0,0,1,0.0788854,0)">
        <path d="M81.5,9.2L80.5,9.2L80.5,11.4C80.5,11.9 80.8,12.1 81.1,12.1C81.3,12.1 81.5,12 81.6,12L81.6,12.6C81.4,12.6 81.2,12.7 81,12.7C80.3,12.7 79.8,12.3 79.8,11.5L79.8,9.2L78.9,9.2L78.9,8.6L79.8,8.6L79.8,7.7L80.5,7.5L80.5,8.7L81.5,8.7L81.5,9.2Z" style="fill:white;fill-rule:nonzero;"/>
    </g>
    <g transform="matrix(1,0,0,1,0.0788854,0)">
        <path d="M84.2,8.5C85.4,8.5 86.2,9.4 86.2,10.6C86.2,11.8 85.4,12.7 84.2,12.7C83,12.7 82.2,11.7 82.2,10.6C82.2,9.4 83,8.5 84.2,8.5ZM84.2,12.2C85,12.2 85.4,11.4 85.4,10.7C85.4,9.9 84.9,9.2 84.2,9.2C83.4,9.2 83,9.9 83,10.7C82.9,11.4 83.3,12.2 84.2,12.2Z" style="fill:white;fill-rule:nonzero;"/>
    </g>
    <g transform="matrix(1,0,0,1,0.0788854,0)">
        <path d="M38.4,20C38.2,20.3 37.7,20.7 37,20.7C35.8,20.7 35.3,19.6 35.3,18.5C35.3,17.4 35.9,16.5 37,16.5C37.7,16.5 38.1,16.8 38.3,17.1L38.3,14.7L39,14.7L39,20.6L38.3,20.6L38.3,20L38.4,20ZM37.2,20C38,20 38.4,19.2 38.4,18.5C38.4,17.8 38,17 37.2,17C36.4,17 36.1,17.8 36.1,18.5C36.1,19.1 36.4,20 37.2,20Z" style="fill:white;fill-rule:nonzero;"/>
    </g>
    <g transform="matrix(1,0,0,1,0.0788854,0)">
        <path d="M43.3,20.4C43,20.5 42.7,20.7 42.1,20.7C40.7,20.7 40.1,19.8 40.1,18.5C40.1,17.3 40.8,16.5 41.9,16.5C43.2,16.5 43.6,17.5 43.6,18.8L40.8,18.8C40.8,19.6 41.4,20.1 42.1,20.1C42.6,20.1 43.1,19.8 43.3,19.7L43.3,20.4ZM42.8,18.1C42.8,17.5 42.4,17 41.8,17C41.1,17 40.8,17.6 40.7,18.1L42.8,18.1Z" style="fill:white;fill-rule:nonzero;"/>
    </g>
    <g transform="matrix(1,0,0,1,0.0788854,0)">
        <path d="M49.1,20.5L48.1,20.5L46.1,15L47,15L48.7,19.8L50.4,15L51.2,15L49.1,20.5Z" style="fill:white;fill-rule:nonzero;"/>
    </g>
    <g transform="matrix(1,0,0,1,0.0788854,0)">
        <path d="M52.7,15.6L51.9,15.6L51.9,14.8L52.7,14.8L52.7,15.6ZM51.9,16.5L52.6,16.5L52.6,20.5L51.9,20.5L51.9,16.5Z" style="fill:white;fill-rule:nonzero;"/>
    </g>
    <g transform="matrix(1,0,0,1,0.0788854,0)">
        <path d="M56.1,17.1L55.1,17.1L55.1,19.3C55.1,19.8 55.4,20 55.7,20C55.9,20 56.1,19.9 56.2,19.9L56.2,20.5C56,20.5 55.8,20.6 55.6,20.6C54.9,20.6 54.4,20.2 54.4,19.4L54.4,17.1L53.5,17.1L53.5,16.5L54.4,16.5L54.4,15.6L55.1,15.4L55.1,16.6L56.1,16.6L56.1,17.1Z" style="fill:white;fill-rule:nonzero;"/>
    </g>
    <g transform="matrix(1,0,0,1,0.0788854,0)">
        <path d="M58.7,16.4C59.9,16.4 60.7,17.3 60.7,18.5C60.7,19.7 59.9,20.6 58.7,20.6C57.5,20.6 56.7,19.6 56.7,18.5C56.7,17.3 57.5,16.4 58.7,16.4ZM58.7,20C59.5,20 59.9,19.2 59.9,18.5C59.9,17.7 59.4,17 58.7,17C57.9,17 57.5,17.7 57.5,18.5C57.5,19.2 57.8,20 58.7,20Z" style="fill:white;fill-rule:nonzero;"/>
    </g>
    <g transform="matrix(1,0,0,1,0.0788854,0)">
        <path d="M61.7,16.5L62.4,16.5L62.4,17.1C62.6,16.7 63,16.4 63.4,16.4C63.6,16.4 63.7,16.4 63.9,16.5L63.9,17.2C63.8,17.1 63.6,17.1 63.5,17.1C62.9,17.1 62.4,17.7 62.4,18.7L62.4,20.5L61.7,20.5L61.7,16.5Z" style="fill:white;fill-rule:nonzero;"/>
    </g>
    <g transform="matrix(1,0,0,1,0.0788854,0)">
        <path d="M65.5,15.6L64.7,15.6L64.7,14.8L65.5,14.8L65.5,15.6ZM64.7,16.5L65.4,16.5L65.4,20.5L64.7,20.5L64.7,16.5Z" style="fill:white;fill-rule:nonzero;"/>
    </g>
    <g transform="matrix(1,0,0,1,0.0788854,0)">
        <path d="M67,16.8C67.4,16.6 67.8,16.4 68.3,16.4C69.4,16.4 69.9,17 69.9,18.1L69.9,20.6L69.2,20.6L69.2,20C69,20.2 68.6,20.6 68,20.6C67.2,20.6 66.6,20.2 66.6,19.3C66.6,18.3 67.7,18 68.4,18L69.2,18C69.2,17.3 69,17 68.2,17C67.8,17 67.4,17.2 67.1,17.4L67,16.8ZM69.1,18.6L68.6,18.6C68.2,18.6 67.2,18.7 67.2,19.4C67.2,19.8 67.6,20.1 67.9,20.1C68.6,20.1 69,19.6 69,19L69,18.6L69.1,18.6Z" style="fill:white;fill-rule:nonzero;"/>
    </g>
    <g transform="matrix(1,0,0,1,0.0788854,0)">
        <rect x="70.7" y="18.1" width="2" height="0.6" style="fill:white;fill-rule:nonzero;"/>
    </g>
    <g transform="matrix(1,0,0,1,0.0788854,0)">
        <path d="M77.8,16C77.4,15.7 77,15.6 76.3,15.6C75.1,15.6 74.2,16.5 74.2,17.8C74.2,19.1 75.1,20 76.2,20C76.7,20 76.9,19.9 77.1,19.9L77.1,18.2L76,18.2L76,17.6L77.9,17.6L77.9,20.5C77.6,20.6 77.1,20.7 76.3,20.7C74.6,20.7 73.5,19.6 73.5,17.8C73.5,16.1 74.7,15 76.3,15C77.1,15 77.4,15.1 77.9,15.3L77.8,16Z" style="fill:white;fill-rule:nonzero;"/>
    </g>
    <g transform="matrix(1,0,0,1,0.0788854,0)">
        <path d="M79.4,16.8C79.8,16.6 80.2,16.4 80.7,16.4C81.8,16.4 82.3,17 82.3,18.1L82.3,20.6L81.6,20.6L81.6,20C81.4,20.2 81,20.6 80.4,20.6C79.6,20.6 79,20.2 79,19.3C79,18.3 80.1,18 80.8,18L81.6,18C81.6,17.3 81.4,17 80.6,17C80.2,17 79.8,17.2 79.5,17.4L79.4,16.8ZM81.5,18.6L81,18.6C80.6,18.6 79.6,18.7 79.6,19.4C79.6,19.8 80,20.1 80.3,20.1C81,20.1 81.4,19.6 81.4,19L81.4,18.6L81.5,18.6Z" style="fill:white;fill-rule:nonzero;"/>
    </g>
    <g transform="matrix(1,0,0,1,0.0788854,0)">
        <path d="M83.2,19.8C83.5,20 83.9,20.1 84.1,20.1C84.4,20.1 84.8,20 84.8,19.5C84.8,18.8 83.1,18.8 83.1,17.7C83.1,16.9 83.7,16.5 84.5,16.5C84.8,16.5 85.1,16.6 85.4,16.7L85.3,17.3C85.1,17.2 84.7,17.1 84.5,17.1C84.1,17.1 83.8,17.3 83.8,17.6C83.8,18.4 85.5,18.2 85.5,19.5C85.5,20.4 84.8,20.8 84.1,20.8C83.7,20.8 83.4,20.8 83,20.6L83.2,19.8Z" style="fill:white;fill-rule:nonzero;"/>
    </g>
    <g transform="matrix(1,0,0,1,0.0788854,0)">
        <path d="M88.5,17.1L87.5,17.1L87.5,19.3C87.5,19.8 87.8,20 88.1,20C88.3,20 88.5,19.9 88.6,19.9L88.6,20.5C88.4,20.5 88.2,20.6 88,20.6C87.3,20.6 86.8,20.2 86.8,19.4L86.8,17.1L85.9,17.1L85.9,16.5L86.8,16.5L86.8,15.6L87.5,15.4L87.5,16.6L88.5,16.6L88.5,17.1Z" style="fill:white;fill-rule:nonzero;"/>
    </g>
    <g transform="matrix(1,0,0,1,0.0788854,0)">
        <path d="M92.5,20.4C92.2,20.5 91.9,20.7 91.3,20.7C89.9,20.7 89.3,19.8 89.3,18.5C89.3,17.3 90,16.5 91.1,16.5C92.4,16.5 92.8,17.5 92.8,18.8L90,18.8C90,19.6 90.6,20.1 91.3,20.1C91.8,20.1 92.3,19.8 92.5,19.7L92.5,20.4ZM92,18.1C92,17.5 91.6,17 91,17C90.3,17 90,17.6 89.9,18.1L92,18.1Z" style="fill:white;fill-rule:nonzero;"/>
    </g>
    <g transform="matrix(1,0,0,1,0.0788854,0)">
        <path d="M94.6,15.6L93.8,15.6L93.8,14.8L94.6,14.8L94.6,15.6ZM93.8,16.5L94.5,16.5L94.5,20.5L93.8,20.5L93.8,16.5Z" style="fill:white;fill-rule:nonzero;"/>
    </g>
    <g transform="matrix(1,0,0,1,0.0788854,0)">
        <path d="M95.6,19.9L97.9,17.1L95.7,17.1L95.7,16.5L98.7,16.5L98.7,17.1L96.4,19.9L98.7,19.9L98.7,20.5L95.5,20.5L95.5,19.9L95.6,19.9Z" style="fill:white;fill-rule:nonzero;"/>
    </g>
    <g transform="matrix(1,0,0,1,0.0788854,0)">
        <path d="M38,30L37,30L35,24.5L35.9,24.5L37.6,29.3L39.3,24.5L40.1,24.5L38,30Z" style="fill:white;fill-rule:nonzero;"/>
    </g>
    <g transform="matrix(1,0,0,1,0.0788854,0)">
        <path d="M41.6,25.1L40.8,25.1L40.8,24.3L41.6,24.3L41.6,25.1ZM40.8,26L41.5,26L41.5,30L40.8,30L40.8,26Z" style="fill:white;fill-rule:nonzero;"/>
    </g>
    <g transform="matrix(1,0,0,1,0.0788854,0)">
        <path d="M44.9,26.6L43.9,26.6L43.9,28.8C43.9,29.3 44.2,29.5 44.5,29.5C44.7,29.5 44.9,29.4 45,29.4L45,30C44.8,30 44.6,30.1 44.4,30.1C43.7,30.1 43.2,29.7 43.2,28.9L43.2,26.6L42.3,26.6L42.3,26L43.2,26L43.2,25L43.9,24.8L43.9,26L44.9,26L44.9,26.6Z" style="fill:white;fill-rule:nonzero;"/>
    </g>
    <g transform="matrix(1,0,0,1,0.0788854,0)">
        <path d="M47.6,25.9C48.8,25.9 49.6,26.8 49.6,28C49.6,29.2 48.8,30.1 47.6,30.1C46.4,30.1 45.6,29.1 45.6,28C45.6,26.8 46.4,25.9 47.6,25.9ZM47.6,29.5C48.4,29.5 48.8,28.7 48.8,28C48.8,27.2 48.3,26.5 47.6,26.5C46.8,26.5 46.4,27.2 46.4,28C46.4,28.7 46.7,29.5 47.6,29.5Z" style="fill:white;fill-rule:nonzero;"/>
    </g>
    <g transform="matrix(1,0,0,1,0.0788854,0)">
        <path d="M50.5,26L51.2,26L51.2,26.6C51.4,26.2 51.8,25.9 52.2,25.9C52.4,25.9 52.5,25.9 52.7,26L52.7,26.7C52.6,26.6 52.4,26.6 52.3,26.6C51.7,26.6 51.2,27.2 51.2,28.2L51.2,30L50.5,30L50.5,26Z" style="fill:white;fill-rule:nonzero;"/>
    </g>
    <g transform="matrix(1,0,0,1,0.0788854,0)">
        <path d="M54.4,25.1L53.6,25.1L53.6,24.3L54.4,24.3L54.4,25.1ZM53.6,26L54.3,26L54.3,30L53.6,30L53.6,26Z" style="fill:white;fill-rule:nonzero;"/>
    </g>
    <g transform="matrix(1,0,0,1,0.0788854,0)">
        <path d="M55.9,26.3C56.3,26.1 56.7,25.9 57.2,25.9C58.3,25.9 58.8,26.5 58.8,27.6L58.8,30.1L58.1,30.1L58.1,29.6C57.9,29.8 57.5,30.2 56.9,30.2C56.1,30.2 55.5,29.8 55.5,28.9C55.5,27.9 56.6,27.6 57.3,27.6L58.1,27.6C58.1,26.9 57.9,26.6 57.1,26.6C56.7,26.6 56.3,26.8 56,27L55.9,26.3ZM58,28.1L57.5,28.1C57.1,28.1 56.1,28.2 56.1,28.9C56.1,29.3 56.5,29.6 56.8,29.6C57.5,29.6 57.9,29.1 57.9,28.5L57.9,28.1L58,28.1Z" style="fill:white;fill-rule:nonzero;"/>
    </g>
    <g transform="matrix(1,0,0,1,0.0788854,0)">
        <rect x="59.6" y="27.6" width="2" height="0.6" style="fill:white;fill-rule:nonzero;"/>
    </g>
    <g transform="matrix(1,0,0,1,0.0788854,0)">
        <path d="M66.7,25.5C66.3,25.2 65.9,25.1 65.2,25.1C64,25.1 63.1,26 63.1,27.3C63.1,28.6 64,29.5 65.1,29.5C65.6,29.5 65.8,29.4 66,29.4L66,27.7L64.9,27.7L64.9,27L66.8,27L66.8,29.9C66.5,30 66,30.1 65.2,30.1C63.5,30.1 62.4,29 62.4,27.2C62.4,25.5 63.6,24.4 65.2,24.4C66,24.4 66.3,24.5 66.8,24.7L66.7,25.5Z" style="fill:white;fill-rule:nonzero;"/>
    </g>
    <g transform="matrix(1,0,0,1,0.0788854,0)">
        <path d="M68.3,26.3C68.7,26.1 69.1,25.9 69.6,25.9C70.7,25.9 71.2,26.5 71.2,27.6L71.2,30.1L70.5,30.1L70.5,29.6C70.3,29.8 69.9,30.2 69.3,30.2C68.5,30.2 67.9,29.8 67.9,28.9C67.9,27.9 69,27.6 69.7,27.6L70.5,27.6C70.5,26.9 70.3,26.6 69.5,26.6C69.1,26.6 68.7,26.8 68.4,27L68.3,26.3ZM70.4,28.1L69.9,28.1C69.5,28.1 68.5,28.2 68.5,28.9C68.5,29.3 68.9,29.6 69.2,29.6C69.9,29.6 70.3,29.1 70.3,28.5L70.3,28.1L70.4,28.1Z" style="fill:white;fill-rule:nonzero;"/>
    </g>
    <g transform="matrix(1,0,0,1,0.0788854,0)">
        <path d="M72.1,29.2C72.4,29.4 72.8,29.5 73,29.5C73.3,29.5 73.7,29.4 73.7,28.9C73.7,28.2 72,28.2 72,27.1C72,26.3 72.6,25.9 73.4,25.9C73.7,25.9 74,26 74.3,26.1L74.2,26.7C74,26.6 73.6,26.5 73.4,26.5C73,26.5 72.7,26.7 72.7,27C72.7,27.8 74.4,27.6 74.4,28.9C74.4,29.8 73.7,30.2 73,30.2C72.6,30.2 72.3,30.2 71.9,30L72.1,29.2Z" style="fill:white;fill-rule:nonzero;"/>
    </g>
    <g transform="matrix(1,0,0,1,0.0788854,0)">
        <path d="M77.4,26.6L76.4,26.6L76.4,28.8C76.4,29.3 76.7,29.5 77,29.5C77.2,29.5 77.4,29.4 77.5,29.4L77.5,30C77.3,30 77.1,30.1 76.9,30.1C76.2,30.1 75.7,29.7 75.7,28.9L75.7,26.6L74.8,26.6L74.8,26L75.7,26L75.7,25L76.4,24.8L76.4,26L77.4,26L77.4,26.6Z" style="fill:white;fill-rule:nonzero;"/>
    </g>
    <g transform="matrix(1,0,0,1,0.0788854,0)">
        <path d="M81.3,29.8C81,29.9 80.7,30.1 80.1,30.1C78.7,30.1 78.1,29.2 78.1,27.9C78.1,26.7 78.8,25.9 79.9,25.9C81.2,25.9 81.6,26.9 81.6,28.2L78.8,28.2C78.8,29 79.4,29.5 80.1,29.5C80.6,29.5 81.1,29.2 81.3,29.1L81.3,29.8ZM80.9,27.6C80.9,27 80.5,26.5 79.9,26.5C79.2,26.5 78.9,27.1 78.8,27.6L80.9,27.6Z" style="fill:white;fill-rule:nonzero;"/>
    </g>
    <g transform="matrix(1,0,0,1,0.0788854,0)">
        <path d="M83.5,25.1L82.7,25.1L82.7,24.3L83.5,24.3L83.5,25.1ZM82.7,26L83.4,26L83.4,30L82.7,30L82.7,26Z" style="fill:white;fill-rule:nonzero;"/>
    </g>
    <g transform="matrix(1,0,0,1,0.0788854,0)">
        <path d="M84.5,29.3L86.8,26.5L84.6,26.5L84.6,26L87.6,26L87.6,26.6L85.3,29.4L87.6,29.4L87.6,30L84.4,30L84.4,29.3L84.5,29.3Z" style="fill:white;fill-rule:nonzero;"/>
    </g>
    <g transform="matrix(1,0,0,1,0.0788854,0)">
        <path d="M88.6,24.1L89.3,24.1L89.3,27.6L90.9,26L91.9,26L90.1,27.8L92.2,30L91.2,30L89.4,27.9L89.4,30L88.7,30L88.7,24.1L88.6,24.1Z" style="fill:white;fill-rule:nonzero;"/>
    </g>
    <g transform="matrix(1,0,0,1,0.0788854,0)">
        <path d="M94.6,25.9C95.8,25.9 96.6,26.8 96.6,28C96.6,29.2 95.8,30.1 94.6,30.1C93.4,30.1 92.6,29.1 92.6,28C92.6,26.8 93.4,25.9 94.6,25.9ZM94.6,29.5C95.4,29.5 95.8,28.7 95.8,28C95.8,27.2 95.3,26.5 94.6,26.5C93.8,26.5 93.4,27.2 93.4,28C93.4,28.7 93.8,29.5 94.6,29.5Z" style="fill:white;fill-rule:nonzero;"/>
    </g>
    <g transform="matrix(1,0,0,1,0.0788854,0)">
        <path d="M39.8,35.6C39.8,37.1 39,38 37.7,38C36.4,38 35.6,37.2 35.6,35.6L35.6,32.4L36.4,32.4L36.4,35.5C36.4,36.6 36.7,37.3 37.7,37.3C38.7,37.3 39,36.6 39,35.5L39,32.4L39.8,32.4L39.8,35.6Z" style="fill:white;fill-rule:nonzero;"/>
    </g>
    <g transform="matrix(1,0,0,1,0.0788854,0)">
        <path d="M43.9,37.3C43.7,37.6 43.2,38 42.5,38C41.3,38 40.8,36.9 40.8,35.8C40.8,34.7 41.4,33.8 42.5,33.8C43.2,33.8 43.6,34.1 43.8,34.4L43.8,32L44.5,32L44.5,37.9L43.8,37.9L43.8,37.3L43.9,37.3ZM42.7,37.4C43.5,37.4 43.9,36.6 43.9,35.9C43.9,35.2 43.5,34.4 42.7,34.4C41.9,34.4 41.6,35.2 41.6,35.9C41.6,36.5 42,37.4 42.7,37.4Z" style="fill:white;fill-rule:nonzero;"/>
    </g>
    <g transform="matrix(1,0,0,1,0.0788854,0)">
        <path d="M46,34.1C46.4,33.9 46.8,33.7 47.3,33.7C48.4,33.7 48.9,34.3 48.9,35.4L48.9,37.9L48.2,37.9L48.2,37.4C48.1,37.6 47.7,38 47,38C46.2,38 45.6,37.6 45.6,36.7C45.6,35.7 46.7,35.4 47.4,35.4L48.2,35.4C48.2,34.7 48,34.4 47.2,34.4C46.8,34.4 46.4,34.6 46.1,34.8L46,34.1ZM48.2,36L47.7,36C47.3,36 46.3,36.1 46.3,36.8C46.3,37.2 46.7,37.5 47,37.5C47.7,37.5 48.1,37 48.1,36.4L48.1,36L48.2,36Z" style="fill:white;fill-rule:nonzero;"/>
    </g>
    <g transform="matrix(1,0,0,1,0.0788854,0)">
        <rect x="50.2" y="32" width="0.7" height="5.9" style="fill:white;fill-rule:nonzero;"/>
    </g>
    <g transform="matrix(1,0,0,1,0.0788854,0)">
        <path d="M52.4,34.1C52.8,33.9 53.2,33.7 53.7,33.7C54.8,33.7 55.3,34.3 55.3,35.4L55.3,37.9L54.6,37.9L54.6,37.4C54.4,37.6 54,38 53.4,38C52.6,38 52,37.6 52,36.7C52,35.7 53.1,35.4 53.8,35.4L54.6,35.4C54.6,34.7 54.4,34.4 53.6,34.4C53.2,34.4 52.8,34.6 52.5,34.8L52.4,34.1ZM54.6,36L54.1,36C53.7,36 52.7,36.1 52.7,36.8C52.7,37.2 53.1,37.5 53.4,37.5C54.1,37.5 54.5,37 54.5,36.4L54.5,36L54.6,36Z" style="fill:white;fill-rule:nonzero;"/>
    </g>
    <g transform="matrix(1,0,0,1,0.0788854,0)">
        <path d="M20.8,7.5C21.1,7.7 21.5,7.8 22,7.8C22.5,7.8 23,7.6 23.3,7.4C24.1,6.8 19,3.9 12.7,4.4C8,4.7 4.1,6 2.4,7.6C2.1,7.9 1.9,8.5 2,9C2.2,9.8 4.3,7.7 4.4,7.5C5.5,6.7 8.8,6.2 12.7,6.2C16.4,6.2 19.6,6.7 20.8,7.5" style="fill:white;fill-rule:nonzero;"/>
    </g>
    <g transform="matrix(1,0,0,1,0.0788854,0)">
        <path d="M12.3,0.3C11.5,0.8 11.6,1.7 11.6,2.7C11.6,2.9 11.7,3.1 11.9,3.1C13.3,2.8 13.9,1.7 14.3,0.3C14.3,-0 13.7,-0 13.3,-0C12.9,-0 12.6,0.1 12.3,0.3" style="fill:white;fill-rule:nonzero;"/>
    </g>
    <g transform="matrix(1,0,0,1,0.0788854,0)">
        <path d="M21.9,3C22.1,3.7 22.7,4.2 23.4,4.2C23.9,4.2 24.2,3.6 24.2,3C24.2,2.3 23.3,2 22.6,2C22.3,2 22.1,2.1 22,2.3C21.8,2.7 21.9,3 21.9,3" style="fill:white;fill-rule:nonzero;"/>
    </g>
    <g transform="matrix(1,0,0,1,0.0788854,0)">
        <path d="M16,2.5C15.7,1.8 16.4,1.2 17.1,0.9C17.7,0.7 18.4,0.8 18.7,1.4C18.9,1.8 18.6,2.1 18.3,2.4C18,2.8 17.8,3 17.4,3.1C16.9,3.4 16.2,3.1 16,2.5" style="fill:white;fill-rule:nonzero;"/>
    </g>
    <g transform="matrix(1,0,0,1,0.0788854,0)">
        <path d="M4,4.5C3.8,5.1 3.3,5.7 2.6,5.7C2,5.7 1.8,5.1 1.8,4.5C1.8,3.8 2.7,3.5 3.4,3.5C3.7,3.5 3.9,3.6 4,3.8C4.1,4.1 4,4.5 4,4.5" style="fill:white;fill-rule:nonzero;"/>
    </g>
    <g transform="matrix(1,0,0,1,0.0788854,0)">
        <path d="M9,3C9.3,2.3 8.6,1.7 7.9,1.4C7.3,1.2 6.6,1.3 6.3,1.9C6.1,2.3 6.4,2.6 6.7,2.9C7,3.3 7.2,3.5 7.6,3.6C8.2,3.9 8.8,3.6 9,3" style="fill:white;fill-rule:nonzero;"/>
    </g>
    <g transform="matrix(1,0,0,1,0.0788854,0)">
        <path d="M22,16.7C22.4,17.1 22.6,17.6 22.6,18C22.6,18.3 22.5,18.9 22.5,18.9C22.1,20.6 20.6,29.6 20.4,30.7C20.3,31.1 20,31.3 19.6,31.3C19.1,31.3 18.7,30.9 18.7,30.4C18.7,30.3 18.8,29.7 18.8,29.7C19.2,27.4 20.6,18.3 20.6,18.3C20.6,18.3 20.7,17.7 20.1,17.6C20.1,17.6 16.8,17 16.4,16.5C16.2,16.4 16.1,16 16.1,15.6L15.9,12.7C15.9,11.9 15.5,11.1 14.7,11C14.2,10.9 13.6,10.9 13.1,10.9C12.4,10.9 11.8,10.9 11.2,11C10.4,11 9.8,11.7 9.8,12.5L9.6,16C9.6,16.3 9,16.3 9,16.3C9,16.3 5.9,16.6 5.3,16.7C4.7,16.8 4.8,17.4 4.8,17.4C4.8,17.4 6.3,25.5 6.6,27.8C6.6,27.8 6.7,28.4 6.7,28.5C6.7,29 6.3,29.4 5.8,29.4C5.4,29.4 5.1,29.1 5,28.8C4.8,27.7 3.6,20.1 3.2,18.4C3.2,18.4 3.1,17.8 3.1,17.5C3.1,16.3 3.8,15.3 4.7,14.8C4.9,14.8 5,14.6 5,14.5C5,14.4 4.9,14.2 4.8,14.2C3.2,13.4 4.1,12.7 4.1,12.7C4,11.4 0.8,12.3 3.3,10.9C4.1,10.5 5.3,11.8 5.3,11.8C6,12.1 7,12.7 7.9,13.3C8,13.3 8,13.4 8.1,13.4C8.3,13.4 8.5,13.2 8.5,13L8.5,11.4C8.5,10.7 9,10 9.6,9.8C10.5,9.5 11.7,9.3 12.9,9.3C14.9,9.3 16.6,9.8 17.8,10.5C18,10.6 18.2,10.9 18.2,11.2L18.2,13C18.2,13.2 18.4,13.3 18.6,13.3C18.7,13.3 18.7,13.3 18.8,13.2C19.5,12.8 20.1,12.4 20.6,12.2C20.6,12.2 21.8,10.9 22.6,11.3C25.1,12.6 21.9,11.8 21.8,13.1C21.8,13.1 23.1,14.2 19.7,15.1C19.5,15.1 19.4,15.2 19.4,15.4C19.4,15.5 19.5,15.6 19.6,15.7C19.6,15.7 20.4,15.8 20.9,16C21.3,16.2 21.7,16.3 22,16.7" style="fill:white;fill-rule:nonzero;"/>
    </g>
    <g transform="matrix(1,0,0,1,0.0788854,0)">
        <path d="M10.1,25.9C10.1,24 11.6,22.6 13.5,22.6C16,22.6 15.8,26.2 15.8,28.8C15.8,30.3 16.2,32.2 15.8,33.3C15.7,33.6 15.4,33.8 15.1,33.8C14.7,33.8 14.4,33.5 14.4,33.1L14.4,25.2C14.4,24.5 13.8,24 13.2,24C11.5,24 11.2,26.2 11.2,27.9L11.2,31.9C11.2,32.5 11.3,33.2 11.2,33.7C11.1,33.9 10.9,34.1 10.6,34.1C10.3,34.1 10.1,33.9 10,33.6C10.1,33.6 10.1,28.9 10.1,25.9" style="fill:white;fill-rule:nonzero;"/>
    </g>
    <g transform="matrix(1,0,0,1,0.0788854,0)">
        <path d="M10.1,25.9C10.1,24 11.6,22.6 13.5,22.6C16,22.6 15.8,26.2 15.8,28.8C15.8,30.3 16.2,32.2 15.8,33.3C15.7,33.6 15.4,33.8 15.1,33.8C14.7,33.8 14.4,33.5 14.4,33.1L14.4,25.2C14.4,24.5 13.8,24 13.2,24C11.5,24 11.2,26.2 11.2,27.9L11.2,31.9C11.2,32.5 11.3,33.2 11.2,33.7C11.1,33.9 10.9,34.1 10.6,34.1C10.3,34.1 10.1,33.9 10,33.6C10.1,33.6 10.1,28.9 10.1,25.9" style="fill:white;fill-rule:nonzero;"/>
    </g>
    <g transform="matrix(1,0,0,1,0.0788854,0)">
        <path d="M13.2,41.5C12.8,42.1 12.1,42.7 11,43.3C10.5,43.5 9.8,43.2 9.5,42.5C9.5,42.4 9.5,42.4 9.4,42.3C9.2,41.4 8.4,40.8 7.5,40.8C6.6,40.8 5.9,41.4 5.6,42.2L5.5,42.4C5.3,42.9 4.8,43.2 4.4,43C4,42.8 3.8,42.3 4,41.8C4.8,40.2 6.2,39.2 7.7,39.2C9.1,39.2 10.3,40 11.1,41.3C11.9,40.5 12.3,39.5 12,38.7C11.5,37.4 9.5,37.2 7.1,37.8C7.1,37.8 7,37.1 6.8,36.6C6.5,35.3 5,33.7 3.7,33.7C3,33.7 -0,36 3.5,36.1C3.6,36.1 3.7,36.2 3.7,36.2C3.8,36.3 3.8,36.4 3.7,36.5C2.7,38 -0.1,37.1 0.8,34.7C2.2,30.9 7.8,32.1 7.7,36.4C10.1,35.9 12.2,36.3 13.2,37.4C14.2,36.3 16.3,36 18.7,36.4C18.6,32.2 24.2,31 25.6,34.7C26.5,37.1 23.7,38 22.7,36.5C22.6,36.4 22.6,36.3 22.7,36.2C22.8,36.1 22.8,36.1 22.9,36.1C26.4,36 23.4,33.7 22.6,33.7C21.3,33.7 19.8,35.3 19.5,36.6C19.4,37.1 19.2,37.8 19.2,37.8C16.9,37.2 14.8,37.4 14.3,38.7C14,39.5 14.4,40.4 15.2,41.3C16,40 17.2,39.2 18.6,39.2C20.2,39.2 21.5,40.3 22.3,41.8C22.5,42.3 22.3,42.8 21.9,43C21.5,43.2 21,42.9 20.8,42.4L20.7,42.2C20.4,41.4 19.7,40.8 18.8,40.8C17.9,40.8 17.1,41.4 16.9,42.3C16.9,42.4 16.9,42.4 16.8,42.5C16.5,43.2 15.8,43.5 15.3,43.3C14.2,42.7 13.6,42.1 13.2,41.5Z" style="fill:white;fill-rule:nonzero;"/>
    </g>
    <g transform="matrix(1,0,0,1,0.0788854,0)">
        <path d="M23.2,41.6C23.8,42.1 24.5,42.5 24.7,43.3C24.8,43.7 24.4,44.1 24.7,44.5C25,44.8 25.3,44.7 25.7,44.6C26.5,44.4 26.3,43.2 26.1,42.4C25.9,41.7 25.4,41.1 24.8,40.7C24.8,40.7 25,39.6 25,39.3C25,38.9 24.5,38.1 23.8,38.1C23.4,38.1 23,38.1 22.9,38.5C22.7,39.1 23.4,38.9 23.5,39.7C23.5,40 22.9,40.7 23.1,41.2C23.1,41.4 23.1,41.5 23.2,41.6" style="fill:white;fill-rule:nonzero;"/>
    </g>
    <g transform="matrix(1,0,0,1,0.0788854,0)">
        <path d="M3,41.6C2.4,42.1 1.7,42.5 1.5,43.3C1.4,43.7 1.8,44.1 1.5,44.5C1.2,44.8 0.9,44.7 0.5,44.6C-0.3,44.4 -0.1,43.2 0.1,42.4C0.3,41.7 0.8,41.1 1.4,40.7C1.4,40.7 1.2,39.6 1.2,39.3C1.2,38.9 1.7,38.1 2.4,38.1C2.8,38.1 3.2,38.1 3.3,38.5C3.5,39.1 2.8,38.9 2.7,39.7C2.7,40 3.3,40.7 3.1,41.2C3.2,41.4 3.1,41.5 3,41.6C3.1,41.6 3,41.6 3,41.6" style="fill:white;fill-rule:nonzero;"/>
    </g>
</svg>
