<svg width="199" height="114" viewBox="0 0 199 114" fill="none" xmlns="http://www.w3.org/2000/svg">
<path d="M77.6979 0H73.3979V28.4H77.6979V0Z" fill="white"/>
<path d="M77.6979 85.1H73.3979V113.5H77.6979V85.1Z" fill="white"/>
<path d="M86.1978 50.1H93.9978V48.3H88.1978V43.7H93.4978V41.9H88.1978V37.8H93.9978V36H86.1978V50.1Z" fill="white"/>
<path d="M97.3979 50.1H99.298V45.4C99.298 44.3 99.4979 43.3 100.098 42.4C100.598 41.6 101.498 41.2 102.398 41.2C103.098 41.2 103.798 41.6 104.098 42.2C104.498 43 104.598 44 104.598 44.9V50.2H106.498V44C106.598 42.8 106.198 41.7 105.598 40.8C104.898 40 103.798 39.5 102.698 39.6C101.998 39.6 101.298 39.8 100.698 40.1C100.098 40.4 99.6979 40.9 99.3979 41.5V39.9H97.5979L97.3979 50.1Z" fill="white"/>
<path d="M108.998 49.8C109.398 50 109.898 50.2 110.398 50.3C110.898 50.4 111.398 50.4 111.798 50.4C112.398 50.4 112.998 50.3 113.498 50.1C113.998 49.9 114.498 49.5 114.798 49C115.198 48.5 115.298 47.8 115.298 47.2C115.298 46.5 115.098 45.9 114.598 45.4C114.198 45 113.598 44.6 113.098 44.4C112.598 44.2 112.098 43.9 111.598 43.6C111.198 43.4 110.898 42.9 110.898 42.4C110.898 42 111.098 41.7 111.398 41.5C111.798 41.3 112.198 41.2 112.698 41.2C112.998 41.2 113.398 41.3 113.698 41.4C113.998 41.5 114.398 41.6 114.698 41.8L114.998 40C114.598 39.9 114.298 39.8 113.898 39.7C113.498 39.6 113.098 39.6 112.698 39.6C111.798 39.6 110.898 39.8 110.098 40.4C109.398 41 108.998 41.9 109.098 42.8C109.098 43.4 109.298 44 109.798 44.5C110.198 44.9 110.798 45.3 111.298 45.5C111.798 45.7 112.298 46 112.798 46.3C113.198 46.5 113.498 46.9 113.498 47.4C113.498 47.9 113.298 48.3 112.898 48.6C112.498 48.8 112.098 48.9 111.598 48.9C111.198 48.9 110.898 48.8 110.498 48.7C110.098 48.6 109.598 48.4 109.298 48.2L108.998 49.8Z" fill="white"/>
<path d="M118.598 42.2C118.998 41.9 119.498 41.6 119.998 41.4C120.498 41.2 120.998 41.1 121.598 41.1C122.298 41 123.098 41.3 123.598 41.8C123.998 42.4 124.198 43.1 124.198 43.8H122.198C121.498 43.8 120.798 43.9 120.098 44.1C119.398 44.3 118.798 44.6 118.198 45.1C117.698 45.6 117.398 46.4 117.398 47.1C117.298 48 117.698 48.9 118.398 49.5C119.198 50 120.098 50.3 121.098 50.3C121.798 50.3 122.498 50.1 123.198 49.8C123.598 49.5 123.998 49.2 124.298 48.8V50.1H126.098V43.8C126.198 42.7 125.798 41.5 125.098 40.6C124.298 39.8 123.098 39.4 121.998 39.5C121.398 39.5 120.698 39.6 120.098 39.8C119.598 40 118.998 40.2 118.598 40.5V42.2ZM124.098 46.1C124.098 46.8 123.898 47.5 123.398 48C122.798 48.5 122.098 48.8 121.298 48.8C120.798 48.8 120.398 48.6 119.998 48.4C119.298 47.9 119.198 46.9 119.698 46.2C119.798 46.1 119.898 45.9 120.098 45.8C120.498 45.5 121.098 45.3 121.598 45.3C122.098 45.2 122.498 45.2 122.998 45.2H124.198L124.098 46.1Z" fill="white"/>
<path d="M129.498 50.1H131.398V45.4C131.298 44.3 131.598 43.3 132.198 42.4C132.698 41.6 133.598 41.2 134.598 41.2C135.298 41.2 135.998 41.6 136.298 42.2C136.698 43 136.798 44 136.798 44.9V50.2H138.698V44C138.798 42.9 138.398 41.7 137.798 40.8C137.098 40 135.998 39.5 134.898 39.6C134.198 39.6 133.498 39.8 132.898 40.1C132.298 40.4 131.798 40.9 131.498 41.5V39.9H129.698L129.498 50.1Z" fill="white"/>
<path d="M148.698 40C148.398 39.9 147.998 39.8 147.598 39.7C147.198 39.6 146.798 39.6 146.398 39.6C144.998 39.6 143.598 40.1 142.598 41.1C141.598 42.1 141.098 43.5 141.198 44.9C141.198 45.8 141.398 46.8 141.898 47.6C142.298 48.4 142.998 49.1 143.698 49.5C144.498 50 145.498 50.2 146.398 50.2C146.798 50.2 147.198 50.2 147.498 50.1C147.898 50.1 148.298 49.9 148.698 49.8L148.598 48.1C148.298 48.3 147.998 48.4 147.598 48.5C147.298 48.6 146.898 48.6 146.598 48.6C145.898 48.6 145.198 48.4 144.598 48C144.098 47.6 143.698 47.1 143.498 46.6C143.298 46 143.098 45.4 143.098 44.8C143.098 44.2 143.198 43.5 143.498 43C143.698 42.4 144.098 42 144.598 41.6C145.098 41.2 145.698 41 146.398 41C146.698 41 147.098 41 147.398 41.1C147.798 41.2 148.098 41.3 148.498 41.4L148.698 40Z" fill="white"/>
<path d="M151.198 50.1H153.098V45.4C153.098 44.3 153.298 43.3 153.898 42.4C154.398 41.6 155.298 41.2 156.298 41.2C156.998 41.2 157.698 41.6 157.998 42.2C158.398 43 158.498 44 158.498 44.9V50.2H160.398V44C160.498 42.8 160.098 41.7 159.498 40.8C158.798 40 157.698 39.6 156.598 39.6C155.898 39.6 155.298 39.7 154.698 40C154.098 40.3 153.698 40.7 153.298 41.3V35H151.398V50.1H151.198Z" fill="white"/>
<path d="M171.598 47.8C171.198 48.1 170.798 48.3 170.298 48.5C169.698 48.7 169.098 48.8 168.398 48.9C166.598 48.9 165.098 47.4 164.998 45.6V45.5H172.298C172.298 44.5 172.198 43.5 171.898 42.5C171.598 41.7 171.198 41 170.498 40.5C169.698 40 168.798 39.7 167.798 39.7C166.498 39.7 165.198 40.2 164.298 41.1C163.398 42.1 162.898 43.5 162.998 44.8C162.898 46.2 163.398 47.7 164.298 48.8C165.298 49.9 166.798 50.4 168.298 50.3C168.998 50.3 169.598 50.2 170.298 50.1C170.798 49.9 171.198 49.8 171.598 49.7V47.8ZM165.098 44C165.098 43.5 165.298 43.1 165.498 42.7C165.698 42.3 165.998 41.9 166.398 41.6C166.798 41.3 167.398 41.1 167.898 41.2C168.598 41.2 169.298 41.5 169.798 42C170.198 42.6 170.498 43.3 170.498 44H165.098Z" fill="white"/>
<path d="M180.498 50.1H189.398V48.5H182.698C182.998 48.2 183.398 47.8 183.898 47.4C184.398 47 184.798 46.6 185.198 46.2C185.598 45.8 186.298 45.1 186.898 44.4C187.498 43.7 188.098 43 188.498 42.2C188.898 41.5 189.198 40.7 189.198 39.9C189.298 38.7 188.798 37.6 187.898 36.9C186.998 36.2 185.798 35.9 184.698 35.9C184.098 35.9 183.398 36 182.798 36.1C182.198 36.2 181.598 36.4 180.998 36.7L181.198 38.4C181.698 38.2 182.098 37.9 182.598 37.8C183.198 37.6 183.798 37.5 184.398 37.5C185.098 37.5 185.798 37.7 186.298 38.1C186.798 38.5 186.998 39.1 186.998 39.7C186.998 40.5 186.698 41.3 186.298 41.9C185.798 42.6 185.298 43.3 184.698 43.9C184.098 44.5 183.498 45.1 182.998 45.6C182.498 46.1 182.098 46.4 181.698 46.8L180.498 47.8V50.1Z" fill="white"/>
<path d="M196.298 50.1H198.298V36.1H196.498L193.098 38.9L194.198 40.2L196.298 38.4V50.1Z" fill="white"/>
<path d="M86.2979 74.2H95.9978V72.4H88.6978L95.8979 62V60.2H86.5978V62H93.5978L86.3979 72.4V74.2H86.2979Z" fill="white"/>
<path d="M99.498 66.3C99.898 66 100.398 65.7 100.898 65.5C101.398 65.3 101.898 65.2 102.498 65.2C103.198 65.1 103.998 65.4 104.498 65.9C104.898 66.5 105.098 67.2 105.098 67.9H103.098C102.398 67.9 101.698 68 100.998 68.2C100.298 68.4 99.698 68.7 99.198 69.2C98.698 69.7 98.398 70.5 98.398 71.2C98.298 72.1 98.698 73 99.398 73.6C100.198 74.1 101.098 74.4 102.098 74.4C102.798 74.4 103.498 74.2 104.098 73.8C104.498 73.5 104.898 73.2 105.198 72.8V74.1H106.998C106.998 73.9 106.998 73.7 106.898 73.4C106.898 73 106.898 72.5 106.898 72.1V68C106.998 66.9 106.598 65.7 105.898 64.8C104.998 64 103.898 63.6 102.698 63.7C101.498 63.7 100.298 64.1 99.298 64.7L99.498 66.3ZM104.998 70.2C104.998 70.9 104.798 71.6 104.298 72.1C103.698 72.6 102.998 72.9 102.198 72.9C101.698 72.9 101.298 72.7 100.898 72.5C100.198 72 99.998 71 100.498 70.3C100.598 70.2 100.698 70 100.898 69.9C101.298 69.6 101.898 69.4 102.398 69.4C102.898 69.3 103.298 69.3 103.798 69.3H104.998V70.2Z" fill="white"/>
<path d="M110.498 74.2H112.298V72.8C112.598 73.3 113.098 73.7 113.598 74C114.298 74.4 115.098 74.6 115.798 74.6C116.698 74.6 117.598 74.3 118.298 73.8C118.998 73.3 119.498 72.6 119.698 71.8C119.998 70.9 120.198 70 120.098 69.1C120.098 68.2 119.898 67.4 119.598 66.5C119.298 65.7 118.798 65.1 118.098 64.6C117.398 64.1 116.498 63.9 115.698 63.9C114.998 63.9 114.198 64 113.498 64.4C112.998 64.7 112.598 65.1 112.298 65.6V59.3H110.398L110.498 74.2ZM118.198 69C118.198 69.6 118.098 70.2 117.898 70.7C117.698 71.3 117.398 71.8 116.998 72.2C116.598 72.6 115.998 72.9 115.398 72.9C114.798 72.9 114.198 72.7 113.698 72.3C113.198 71.9 112.898 71.4 112.698 70.8C112.298 69.6 112.298 68.4 112.698 67.2C112.898 66.6 113.198 66.1 113.698 65.8C114.198 65.4 114.798 65.2 115.398 65.2C115.998 65.2 116.598 65.4 116.998 65.8C117.398 66.2 117.698 66.7 117.898 67.2C118.098 67.8 118.098 68.4 118.198 69Z" fill="white"/>
<path d="M123.798 66.3C124.198 66 124.698 65.7 125.198 65.5C125.698 65.3 126.198 65.2 126.798 65.2C127.498 65.1 128.298 65.4 128.798 65.9C129.198 66.5 129.398 67.2 129.398 67.9H127.398C126.698 67.9 125.998 68 125.298 68.2C124.598 68.4 123.998 68.7 123.398 69.2C122.898 69.7 122.598 70.5 122.598 71.2C122.498 72.1 122.898 73 123.698 73.6C124.498 74.1 125.398 74.4 126.398 74.4C127.098 74.4 127.798 74.2 128.498 73.8C128.898 73.5 129.298 73.2 129.598 72.8V74.1H131.398C131.398 73.9 131.398 73.6 131.298 73.4C131.298 73 131.298 72.5 131.298 72.1V68C131.398 66.9 130.998 65.7 130.298 64.8C129.498 64 128.298 63.6 127.198 63.7C126.598 63.7 125.998 63.8 125.398 64C124.898 64.2 124.298 64.4 123.798 64.7V66.3ZM129.298 70.2C129.298 70.9 129.098 71.6 128.598 72.1C127.998 72.6 127.298 72.9 126.498 72.9C125.998 72.9 125.598 72.7 125.198 72.5C124.498 72 124.398 71 124.898 70.3C124.998 70.2 125.098 70 125.298 69.9C125.698 69.6 126.298 69.4 126.798 69.3C127.298 69.2 127.698 69.2 128.198 69.2C128.398 69.2 128.598 69.2 128.798 69.2H129.398L129.298 70.2Z" fill="white"/>
<path d="M136.898 59.2H134.998V74.2H136.898V59.2Z" fill="white"/>
<path d="M149.898 64H148.198V65.5C147.898 65 147.498 64.5 146.998 64.2C146.298 63.9 145.598 63.7 144.798 63.7C143.898 63.7 142.998 64 142.198 64.5C141.498 65 140.998 65.7 140.698 66.5C140.398 67.3 140.198 68.2 140.198 69.1C140.198 70 140.398 70.8 140.698 71.6C140.998 72.3 141.498 73 142.098 73.5C142.798 74 143.698 74.2 144.498 74.2C145.198 74.2 145.798 74.1 146.398 73.8C146.998 73.5 147.498 73.1 147.898 72.6V73.6C147.898 74.5 147.698 75.4 147.098 76.2C146.498 76.8 145.598 77.2 144.798 77.1C144.198 77.1 143.598 77 142.998 76.9C142.398 76.7 141.698 76.5 141.098 76.2L140.898 77.9C141.598 78.1 142.198 78.3 142.898 78.5C143.398 78.6 143.998 78.6 144.498 78.6C145.998 78.7 147.398 78.3 148.498 77.3C149.398 76.3 149.798 75 149.698 73.7L149.898 64ZM144.998 72.7C144.198 72.7 143.398 72.3 142.898 71.6C142.398 70.9 142.098 70 142.098 69.1C142.098 68.5 142.198 67.9 142.398 67.3C142.598 66.7 142.898 66.3 143.398 65.9C143.798 65.5 144.398 65.3 144.998 65.3C145.898 65.3 146.798 65.7 147.198 66.5C147.698 67.3 147.998 68.3 147.898 69.3C147.898 70.2 147.598 71.1 147.098 71.7C146.698 72.3 145.898 72.6 144.998 72.7Z" fill="white"/>
<path d="M162.598 64H160.698V68.7C160.798 69.8 160.498 70.8 159.898 71.7C159.398 72.5 158.498 72.9 157.498 72.9C156.798 72.9 156.098 72.5 155.798 71.9C155.398 71.1 155.298 70.1 155.298 69.2V64H153.398V70C153.298 71.2 153.698 72.3 154.298 73.2C154.998 74 156.098 74.5 157.198 74.4C157.898 74.4 158.598 74.2 159.198 73.9C159.798 73.6 160.298 73.1 160.598 72.5V74.1H162.398L162.598 64Z" fill="white"/>
<path d="M166.198 74.2H168.098V69.5C168.098 68.4 168.298 67.4 168.898 66.5C169.398 65.7 170.298 65.3 171.298 65.3C171.998 65.3 172.698 65.7 172.998 66.3C173.398 67.1 173.498 68.1 173.498 69V74.3H175.398V68.2C175.498 67.1 175.098 65.9 174.498 65C173.798 64.2 172.698 63.8 171.598 63.8C170.898 63.8 170.198 64 169.598 64.3C168.998 64.6 168.498 65.1 168.198 65.7V64H166.398L166.198 74.2Z" fill="white"/>
<path d="M186.798 71.9C186.398 72.2 185.998 72.4 185.498 72.6C184.898 72.8 184.298 72.9 183.598 73C182.698 73 181.898 72.7 181.198 72.1C180.498 71.5 180.198 70.6 180.198 69.6H187.498C187.498 68.6 187.398 67.6 187.098 66.6C186.898 65.8 186.398 65.1 185.698 64.6C184.898 64.1 183.998 63.8 182.998 63.8C181.698 63.8 180.398 64.3 179.498 65.2C178.598 66.2 178.098 67.6 178.198 68.9C178.098 70.3 178.598 71.8 179.498 72.9C180.498 74 181.998 74.5 183.498 74.4C184.198 74.4 184.798 74.3 185.498 74.2C185.898 74.1 186.298 73.9 186.698 73.8L186.798 71.9ZM180.298 68.1C180.298 67.6 180.498 67.2 180.698 66.8C180.898 66.4 181.198 66 181.598 65.7C181.998 65.4 182.598 65.2 183.098 65.3C183.798 65.3 184.498 65.6 184.998 66.1C185.398 66.7 185.698 67.4 185.698 68.1H180.298Z" fill="white"/>
<path d="M191.098 66.3C191.498 66 191.998 65.7 192.498 65.5C192.998 65.3 193.598 65.2 194.098 65.2C194.798 65.1 195.598 65.4 196.098 65.9C196.498 66.5 196.698 67.2 196.698 67.9H194.698C193.998 67.9 193.298 68 192.598 68.2C191.898 68.4 191.298 68.7 190.698 69.2C190.198 69.7 189.898 70.5 189.898 71.2C189.798 72.1 190.198 73 190.898 73.6C191.698 74.1 192.598 74.4 193.598 74.4C194.298 74.4 194.998 74.2 195.698 73.8C196.098 73.5 196.498 73.2 196.798 72.8V74.1H198.598C198.598 73.9 198.598 73.6 198.498 73.4C198.498 73.1 198.498 72.7 198.498 72.1V68C198.598 66.9 198.198 65.7 197.598 64.8C196.698 64 195.598 63.6 194.498 63.7C193.298 63.7 192.098 64.1 191.098 64.7V66.3ZM196.598 70.2C196.598 70.9 196.398 71.6 195.898 72.1C195.298 72.6 194.598 72.9 193.798 72.9C193.298 72.9 192.898 72.7 192.498 72.5C191.798 72 191.698 71 192.198 70.3C192.298 70.2 192.398 70 192.598 69.9C193.098 69.6 193.598 69.4 194.098 69.4C194.598 69.3 194.998 69.3 195.498 69.3H196.698V70.2H196.598Z" fill="white"/>
<path d="M41.5978 28.4C42.2978 28.8 43.0978 29 43.7978 28.9C44.6978 28.9 45.5978 28.7 46.2978 28.1C47.7978 26.9 37.9978 21.5 25.6978 22.3C16.5978 22.9 8.89779 25.4 5.69779 28.5C4.89779 29.2 4.59779 30.2 4.79779 31.2C5.09779 32.8 9.19779 28.6 9.59779 28.4C11.6978 26.9 18.0978 25.8 25.6978 25.8C32.8978 25.9 39.1978 27 41.5978 28.4Z" fill="white"/>
<path d="M24.8977 14.8C23.2977 15.8 23.4977 17.6 23.4977 19.5C23.4977 19.9 23.7977 20.2 24.0977 20.4C26.8977 19.9 27.9977 17.8 28.6977 15.1C28.8977 14.4 27.6977 14.4 26.9977 14.3C26.1977 14.1 25.3977 14.3 24.8977 14.8Z" fill="white"/>
<path d="M42.4979 20.2C42.8979 21.5 43.9979 22.4 45.3979 22.5C46.4979 22.5 46.9979 21.3 46.9979 20.3C46.9979 18.9 45.1979 18.5 43.7979 18.5C43.2979 18.4 42.7979 18.7 42.4979 19.1C42.3979 19.4 42.3979 19.8 42.4979 20.2Z" fill="white"/>
<path d="M32.1981 19C31.6981 17.6 32.9981 16.5 34.3981 15.9C35.5981 15.4 36.9981 15.6 37.4981 16.8C37.7981 17.6 37.2981 18.1 36.7981 18.8C36.3981 19.4 35.6981 19.9 34.9981 20.2C33.7981 20.6 32.5981 20.1 32.1981 19Z" fill="white"/>
<path d="M8.89795 22.7C8.49795 24 7.39795 25 5.99795 25C4.89795 25 4.39795 23.8 4.39795 22.8C4.39795 21.4 6.19795 21 7.59795 21C8.09795 20.9 8.59795 21.2 8.89795 21.6C8.99795 22 8.99795 22.4 8.89795 22.7Z" fill="white"/>
<path d="M18.5981 19.9C19.0981 18.6 17.7981 17.4 16.3981 16.9C15.1981 16.4 13.7981 16.6 13.2981 17.8C12.9981 18.6 13.4981 19.1 13.9981 19.8C14.3981 20.4 15.0981 20.9 15.7981 21.2C16.8981 21.5 18.1981 21 18.5981 19.9Z" fill="white"/>
<path d="M6.89786 93.4C5.69786 94.4 4.39786 95.2 3.99786 96.6C3.79786 97.3 4.59786 98.2 3.89786 98.8C3.39786 99.2 2.59786 99.3 1.99786 99C0.497862 98.7 0.997862 96.5 1.39786 95C1.79786 93.6 2.69786 92.5 3.99786 91.9C3.99786 91.9 3.69786 89.8 3.69786 89.2C3.79786 88 4.79786 87 5.99786 86.9C6.69786 86.9 7.49786 86.9 7.79786 87.6C8.19786 88.7 6.89786 88.4 6.69786 89.9C6.59786 90.5 7.89786 91.8 7.39786 92.8C7.19786 93.1 7.09786 93.2 6.89786 93.4Z" fill="white"/>
<path d="M46.1978 93.4C47.3978 94.4 48.6978 95.2 48.9978 96.6C49.1978 97.3 48.3978 98.2 49.0978 98.8C49.5978 99.2 50.3978 99.3 50.9978 99C52.5978 98.5 52.0978 96.3 51.6978 94.9C51.2978 93.5 50.3978 92.4 49.0978 91.8C49.0978 91.8 49.3978 89.7 49.3978 89.1C49.2978 87.9 48.2978 86.9 47.0978 86.8C46.3978 86.8 45.5978 86.8 45.2978 87.5C44.8978 88.6 46.2978 88.3 46.3978 89.8C46.4978 90.4 45.1978 91.7 45.6978 92.7C45.8978 93.1 45.9978 93.2 46.1978 93.4C46.0978 93.4 46.0978 93.4 46.1978 93.4Z" fill="white"/>
<path d="M26.5977 93.3C25.3977 94.7 23.9977 95.9 22.3977 96.6C21.1977 97 19.8977 96.3 19.4977 95.1C19.4977 95 19.3977 94.9 19.3977 94.8C18.8977 93.1 17.3977 91.9 15.5977 92C13.8977 92 12.4977 93 11.8977 94.6L11.7977 94.9V95C11.4977 95.9 10.5977 96.4 9.69771 96.1C8.89771 95.7 8.49771 94.7 8.89771 93.9C10.3977 90.9 13.0977 88.9 16.0977 88.9C18.7977 89 21.2977 90.5 22.6977 92.9C24.2977 91.3 24.9977 89.5 24.4977 88C23.5977 85.5 19.4977 85.2 14.9977 86.2C14.9977 86.2 14.7977 84.8 14.4977 83.9C13.9977 81.4 10.9977 78.4 8.49771 78.4C6.89771 78.4 1.19771 82.8 7.89771 83C8.19771 83 8.49771 83.2 8.49771 83.5C8.49771 83.6 8.49771 83.7 8.39771 83.8C6.49771 86.7 0.997707 85 2.79771 80.4C5.49771 73.2 16.3977 75.5 16.1977 83.6V83.7C20.7977 82.8 24.8977 83.5 26.7977 85.6C28.6977 83.6 32.7977 82.8 37.3977 83.7V83.6C37.1977 75.5 48.0977 73.2 50.7977 80.4C52.4977 85 47.0977 86.8 45.1977 83.8C44.9977 83.6 45.0977 83.2 45.2977 83C45.3977 82.9 45.4977 82.9 45.5977 82.9C52.2977 82.7 46.5977 78.3 44.9977 78.3C42.3977 78.3 39.4977 81.3 38.9977 83.8C38.7977 84.7 38.4977 86.1 38.4977 86.1C33.9977 85 29.8977 85.4 28.9977 87.9C28.4977 89.4 29.1977 91.2 30.7977 92.8C32.1977 90.4 34.6977 88.9 37.3977 88.8C40.3977 88.8 43.0977 90.8 44.5977 93.8C44.9977 94.7 44.5977 95.7 43.7977 96.1C42.8977 96.4 41.9977 95.9 41.6977 95L41.5977 94.7C40.9977 93.1 39.4977 92.1 37.8977 92.1C36.0977 92 34.5977 93.2 34.0977 94.9C34.0977 95 33.9977 95.1 33.9977 95.2C33.5977 96.4 32.2977 97.1 31.0977 96.7C29.4977 95.9 28.0977 94.8 26.9977 93.3H26.5977Z" fill="white"/>
<path d="M20.5977 63.5C20.6977 59.9 23.5977 57.1 27.1977 57.1C32.0977 57.1 31.6977 64 31.6977 68.8C31.6977 71.6 32.4977 75.2 31.7977 77.5C31.5977 78 31.0977 78.4 30.4977 78.4C29.7977 78.4 29.1977 77.8 29.1977 77.1V62.1C29.0977 60.8 28.0977 59.9 26.7977 59.9C23.4977 59.9 22.8977 64.1 22.8977 67.3V74.9C22.9977 76.1 22.9977 77.2 22.8977 78.4C22.7977 78.9 22.2977 79.2 21.7977 79.3C21.1977 79.3 20.7977 78.9 20.6977 78.3L20.5977 63.5Z" fill="white"/>
<path d="M43.8979 46.1C44.4979 46.8 44.8979 47.6 44.9979 48.5C44.9979 49.1 44.8979 49.6 44.7979 50.2C44.0979 53.5 41.0979 70.7 40.7979 72.8C40.4979 73.7 39.5979 74.2 38.6979 73.9C37.9979 73.7 37.4979 73.1 37.4979 72.3C37.4979 72.1 37.6979 71.1 37.6979 71.1C38.3979 66.7 41.1979 49.4 41.1979 49.4C41.2979 48.7 40.7979 48.1 40.1979 48C40.1979 48 33.7979 46.8 32.8979 46C32.4979 45.5 32.2979 44.9 32.3979 44.3L31.9979 38.9C31.9979 37.4 31.1979 35.8 29.7979 35.7C28.6979 35.6 27.6979 35.5 26.5979 35.5C25.3979 35.5 24.0979 35.6 22.8979 35.7C21.3979 35.7 20.0979 36.9 20.0979 38.5L19.6979 44.7C19.6979 45.3 18.5979 45.3 18.5979 45.3C18.5979 45.3 12.4979 45.9 11.4979 46.1C10.8979 46.3 10.4979 46.9 10.4979 47.5C10.4979 47.5 13.3979 63 13.9979 67.4C13.9979 67.4 14.1979 68.5 14.1979 68.7C14.1979 69.6 13.3979 70.4 12.4979 70.3C11.7979 70.3 11.0979 69.8 10.8979 69.1C10.5979 67 8.09792 52.5 7.39792 49.2C7.29792 48.6 7.19792 48.1 7.19792 47.5C7.19792 45.3 8.39792 43.3 10.3979 42.4C10.6979 42.3 10.8979 42.1 10.8979 41.8C10.8979 41.5 10.6979 41.3 10.3979 41.2C7.29792 39.7 8.99792 38.3 8.99792 38.3C8.79792 35.8 2.59792 37.5 7.49792 35C8.99792 34.2 11.3979 36.8 11.3979 36.8C13.1979 37.5 14.7979 38.5 16.2979 39.6C16.5979 39.9 16.9979 39.8 17.1979 39.6C17.1979 39.6 17.1979 39.6 17.2979 39.5C17.3979 39.4 17.4979 39.2 17.4979 39.1V36.1C17.4979 34.7 18.3979 33.5 19.6979 33C21.7979 32.4 23.8979 32.1 26.0979 32.1C29.3979 32 32.6979 32.8 35.5979 34.4C36.0979 34.7 36.2979 35.2 36.3979 35.7V39.2C36.3979 39.6 36.6979 39.9 37.0979 39.8C37.1979 39.8 37.3979 39.8 37.4979 39.7C38.5979 38.9 39.8979 38.3 41.1979 37.8C41.1979 37.8 43.4979 35.3 45.0979 36C49.8979 38.5 43.7979 36.9 43.5979 39.3C43.5979 39.3 46.1979 41.4 39.4979 43.1C39.1979 43.1 38.9979 43.3 38.9979 43.6C38.9979 43.8 39.1979 44 39.3979 44.1C40.2979 44.2 41.0979 44.3 41.8979 44.6C42.3979 44.9 43.1979 45.4 43.8979 46.1Z" fill="white"/>
</svg>
